<?xml version="1.0" encoding="UTF-8" standalone="no"?>
<!-- Created with Inkscape (http://www.inkscape.org/) -->
<svg xmlns:dc="http://purl.org/dc/elements/1.1/" xmlns:cc="http://creativecommons.org/ns#" xmlns:rdf="http://www.w3.org/1999/02/22-rdf-syntax-ns#" xmlns:svg="http://www.w3.org/2000/svg" xmlns="http://www.w3.org/2000/svg" xmlns:sodipodi="http://sodipodi.sourceforge.net/DTD/sodipodi-0.dtd" xmlns:inkscape="http://www.inkscape.org/namespaces/inkscape" width="453.26291" height="407.61771" id="svg3889" version="1.1" inkscape:version="0.48.2 r9819" sodipodi:docname="tree.svg">
  <defs id="defs3891"/>
  <sodipodi:namedview id="base" pagecolor="#ffffff" bordercolor="#666666" borderopacity="1.0" inkscape:pageopacity="0.0" inkscape:pageshadow="2" inkscape:zoom="0.7" inkscape:cx="-14.037036" inkscape:cy="155.564" inkscape:document-units="px" inkscape:current-layer="layer1" showgrid="false" inkscape:object-paths="false" inkscape:snap-intersection-paths="false" inkscape:snap-smooth-nodes="false" inkscape:object-nodes="false" inkscape:snap-midpoints="false" inkscape:window-width="1920" inkscape:window-height="1058" inkscape:window-x="1912" inkscape:window-y="-8" inkscape:window-maximized="1" fit-margin-top="0" fit-margin-left="0" fit-margin-right="0" fit-margin-bottom="0"/>
  <metadata id="metadata3894">
    <rdf:RDF>
      <cc:Work rdf:about="">
        <dc:format>image/svg+xml</dc:format>
        <dc:type rdf:resource="http://purl.org/dc/dcmitype/StillImage"/>
        <dc:title/>
      </cc:Work>
    </rdf:RDF>
  </metadata>
  <g inkscape:label="Layer 1" inkscape:groupmode="layer" id="layer1" transform="translate(-22.763044,-30.0164)">
    <g id="g4930" transform="translate(-14,-66)">
      <path inkscape:connector-curvature="0" id="path4866" d="m 207.08127,322.27443 -2.77792,3.283 -3.91434,0 -1.38896,2.52538 -2.39911,1.76776 -2.77792,0.25254 -2.77792,0 -2.39911,-0.3788 -2.90419,-1.76777 -0.63135,2.0203 -1.51522,1.38896 -1.6415,0.88389 -2.90419,0.50507 -3.53554,0.25254 -2.0203,-0.88388 -1.89404,-0.50508 -1.26269,-0.63134 -0.88388,-0.25254 -1.01015,1.13642 -2.27285,1.38896 -2.14657,0.50508 -2.27284,0.12627 -2.27285,-0.75762 -1.51523,-0.88388 -1.64149,0 -1.89404,1.26269 -2.52538,0.50507 -2.65165,0.37881 -2.27284,-0.25254 -1.76777,-0.75761 c 0,0 -1.01015,0 -1.38896,-0.63135 -0.37881,-0.63134 -1.13642,-1.51523 -1.13642,-1.51523 l -1.01016,-1.13642 -0.88388,-1.13642 c 0,0 -1.01015,0.50508 -1.6415,0.75762 -0.63134,0.25253 -2.39911,0.25253 -2.39911,0.25253 l -1.6415,0.12627 -2.27284,-0.25254 -2.02031,-0.88388 -1.13642,-0.25254 -1.26269,0.50508 -1.76776,0.88388 -1.76777,0.50508 -2.02031,0.12627 -2.0203,-0.25254 -1.13642,-0.75761 -1.6415,0.50507 -0.88388,1.38896 c 0,0 -2.27285,1.01015 -2.77792,1.01015 -0.50508,0 -2.02031,0 -2.52539,0.12627 -0.50507,0.12627 -1.51522,0.12627 -2.90418,0.12627 -1.38896,0 -1.76777,0 -2.90419,-0.12627 -1.13642,-0.12627 -4.41942,-0.75761 -4.41942,-0.75761 l -2.146574,-1.38896 -2.525382,-1.89404 -1.515229,0.88389 -3.661802,1.38896 -3.282996,0 -3.409265,-0.63135 -2.399112,-1.38896 -1.136422,-1.89403 -1.515229,-1.38896 -2.904188,-0.12627 c 0,0 -1.262691,0 -1.515229,-0.50508 -0.252538,-0.50508 -1.515229,-1.51523 -1.515229,-1.51523 l -1.010153,-1.26269 -2.525381,1.89404 -4.419417,2.14657 -3.661803,1.13642 -4.545687,0.75762 -4.04061,-0.63135 -4.419417,-0.50507 -3.282996,-1.38896 -2.904189,-1.89404 -2.777919,-2.77792 -1.262691,-3.283 0.378807,-3.03045 1.136422,-2.77792 2.65165,-2.27285 2.020306,-0.88388 -2.651651,-2.0203 c 0,0 -1.767767,-2.65165 -1.767767,-3.15673 0,-0.50508 -0.126269,-3.15673 -0.126269,-3.15673 l 1.262691,-2.0203 2.399112,-1.89404 3.914341,-2.0203 1.894036,-0.88389 3.156727,-1.26269 0.505076,-0.75761 -1.641498,-1.26269 -2.020305,-2.14658 -0.631345,-2.39911 0,-3.40926 0.883883,-2.65166 1.894036,-2.90418 1.894036,-1.01016 2.020305,-0.88388 -0.757614,-1.51523 -1.641498,-2.27284 -0.883883,-2.52538 0.378807,-3.15673 1.641498,-3.40926 1.767767,-3.283 c 0,0 1.515229,-1.26269 2.020305,-1.6415 0.505076,-0.37881 1.26269,-1.6415 1.894036,-1.6415 0.631345,0 2.399112,-0.50507 2.399112,-0.50507 l 2.399112,-0.63135 c 0,0 1.010153,0.88389 1.136422,-0.12627 0.126269,-1.01015 -0.757614,-3.6618 -0.757614,-3.6618 l 1.388959,-3.6618 1.767767,-2.52538 2.146574,-2.27285 3.282996,-2.14657 2.77792,-1.01015 2.272843,-0.12627 2.020305,-0.12627 1.767767,0 2.525381,0.12627 2.651651,0.63134 1.136421,-0.25254 1.38896,-1.38896 0.378807,-1.01015 -2.020305,-3.15672 -0.883883,-4.16688 0.252538,-4.16688 2.525381,-3.53554 c 0,0 2.399113,-2.52538 2.904189,-2.65165 0.505076,-0.12627 4.798224,-1.89403 4.798224,-1.89403 l 5.177032,-0.50508 4.16688,0.75761 2.27284,0.75762 1.76777,1.26269 0.88388,-1.26269 2.65165,-1.6415 -0.25253,-3.53553 0.12626,-3.66181 2.27285,-3.40926 3.28299,-2.27284 2.52538,-0.88389 3.40927,0.25254 1.01015,-3.283 0,-4.67195 c 0,0 -0.3788,-2.27284 0,-3.03046 0.37881,-0.75761 1.89404,-3.91434 1.89404,-3.91434 l 3.15672,-2.52538 3.53554,-1.89404 3.6618,-1.38896 3.15673,-0.50507 2.77792,0.25254 3.15672,-0.12627 1.01016,-1.38896 -0.25254,-2.14658 1.01015,-2.39911 2.39911,-2.77792 0,-1.76777 -1.01015,-2.0203 -0.75761,-3.03046 0,-2.65165 1.89403,-3.40926 3.53554,-3.53554 4.67195,-1.76777 2.52538,-0.3788 1.76777,0.12627 0,-2.77792 0.37881,-2.52538 2.14657,-2.02031 2.14658,-2.0203 2.52538,0 -0.50508,-3.78808 1.26269,-3.40926 3.03046,-3.53554 4.41942,-2.27284 5.68211,-0.50507 2.52538,0.12626 -0.63135,-3.40926 0.37881,-5.68211 2.65165,-3.78807 4.41942,-4.79823 c 0,0 3.78807,-2.65165 4.29314,-2.65165 0.50508,0 3.91435,-0.88388 3.91435,-0.88388 l 3.6618,-0.75761 2.39911,-1.13643 3.15673,-4.92449 3.78807,-3.28299 3.283,-1.010157 4.04061,-0.883884 3.6618,-0.378807 3.78807,0.757615 4.04061,1.136423 2.52538,1.51523 1.89404,2.0203 2.14657,2.39911 c 0,0 2.02031,-2.27284 2.77792,-2.27284 0.75762,0 2.39911,-0.63134 2.90419,-0.50508 0.50508,0.12627 3.53553,0.25254 3.53553,0.25254 l 3.283,1.38896 3.283,3.03046 2.0203,2.77792 3.03046,-1.76777 4.16688,-0.88388 2.77792,-0.88388 3.15672,0.3788 3.66181,1.6415 3.40926,2.90419 1.6415,2.0203 0.75761,2.52539 0,1.51522 3.15673,-1.89403 c 0,0 1.38896,-1.01015 2.14658,-0.50508 0.75761,0.50508 3.03045,2.65165 3.03045,2.65165 l 2.90419,3.03046 c 0,0 1.38896,1.76777 1.38896,2.52538 0,0.75762 -0.12627,3.03046 -0.12627,3.03046 l -1.26269,1.89404 -1.13642,1.38896 2.39911,1.76776 -0.37881,2.52538 2.77792,0.25254 2.77792,1.6415 1.6415,1.38896 2.14658,2.14657 2.52538,-2.77792 4.29315,-3.40926 4.54568,-2.65165 4.9245,-1.51523 4.79822,-0.25254 3.40926,0.88389 2.52539,1.64149 2.39911,2.65165 0.63134,1.13643 3.03046,-1.13643 c 0,0 2.39911,-0.25253 3.283,0 0.88388,0.25254 2.0203,1.13643 2.52538,1.38896 0.50507,0.25254 2.39911,1.76777 2.39911,1.76777 l 1.76777,1.01015 3.53553,-2.39911 4.9245,-2.90419 2.65165,-0.25254 6.06091,-1.01015 7.44988,0.88388 4.79822,1.6415 5.17703,3.03046 4.67196,4.54569 1.89403,3.91434 0.37881,5.17703 -0.37881,2.90419 3.15673,-0.12627 2.02031,-1.13642 4.04061,-2.39911 c 0,0 3.6618,-0.12627 4.16688,-0.12627 0.50507,0 6.06091,0.50507 6.06091,0.50507 l 5.3033,2.02031 2.77792,3.6618 3.78807,4.92449 1.26269,3.283 1.13643,3.91434 -0.50508,3.78807 -1.13642,3.283 -2.39911,3.40926 3.03045,1.51523 4.04061,1.76777 c 0,0 1.01016,1.38896 1.38896,2.0203 0.37881,0.63135 1.13642,2.27285 1.13642,2.77792 0,0.50508 -0.25253,2.65165 -0.25253,2.65165 l -1.51523,2.14658 3.03046,1.38896 2.27284,2.0203 1.51523,2.02031 0.63134,3.03046 0.25254,4.29314 -1.6415,2.77792 -1.26269,0.75762 2.90419,0.12627 2.77792,1.01015 2.02031,3.283 0.63134,3.03045 0.25254,5.80838 c 0,0 2.52538,0.37881 3.03046,0.37881 0.50507,0 4.16688,0.63134 4.16688,0.63134 0,0 1.89403,1.01016 2.39911,1.51523 0.50507,0.50508 1.38896,1.89404 1.38896,2.39911 0,0.50508 -0.75762,1.6415 -0.63135,2.52539 0.12627,0.88388 0,2.65165 0,2.65165 l 0.75762,1.51523 1.89403,0.75761 3.40927,0.75761 1.6415,2.14658 0.3788,2.27284 0.25254,2.77792 -1.13642,1.13642 4.54569,-2.27284 6.31345,0.25254 c 0,0 2.65165,1.13642 3.53553,1.89403 0.88389,0.75762 2.90419,2.65165 2.90419,2.65165 l 2.27284,3.40927 c 0,0 1.01016,3.91434 1.13643,4.92449 0.12627,1.01015 -1.13643,5.80838 -1.13643,5.80838 l -1.51522,3.78807 -3.283,3.40927 -1.76777,1.38896 3.78808,0.12627 3.6618,0.88388 1.01015,1.89403 -1.6415,2.39912 -1.38896,3.40926 3.15673,1.01015 1.51523,1.89404 0.50507,3.15673 c 0,0 0.12627,1.26269 0.63135,1.64149 0.50508,0.37881 2.39911,1.13643 2.39911,1.13643 l 2.02031,2.90419 0.75761,4.92449 c 0,0 -0.37881,2.65165 -0.50507,3.53553 -0.12627,0.88389 -1.2627,2.90419 -1.89404,3.283 -0.63135,0.37881 -5.3033,4.29315 -5.3033,4.29315 l -6.9448,3.6618 -3.6618,0.25254 -2.52538,-0.37881 -1.26269,2.02031 -2.65166,1.51522 -2.90418,0.88389 -3.03046,0.25254 -3.03046,-0.88389 -1.51523,1.6415 -2.14657,1.13642 -4.29315,1.38896 -3.6618,-0.88388 -1.76777,-1.01015 -1.51523,-1.38896 -3.283,1.51522 c 0,0 -1.89403,-0.50507 -2.39911,-0.63134 -0.50507,-0.12627 -2.39911,-0.25254 -2.39911,-0.88388 0,-0.63135 -0.37881,-1.13643 -0.37881,-1.13643 0,0 -2.27284,1.01016 -3.40926,1.2627 -1.13642,0.25253 -4.67196,2.0203 -4.67196,2.0203 l -2.52538,1.51523 -4.54569,1.6415 -4.67195,0 -2.90419,0.12627 -2.52538,-0.88389 -2.39911,0 -1.38896,0.88389 c 0,0 -0.75762,1.51522 -1.26269,1.89403 -0.50508,0.37881 -1.51523,0.75762 -2.02031,0.75762 -0.50507,0 -2.14657,0 -2.77792,0 -0.63134,0 -2.0203,-0.37881 -2.77792,-0.37881 -0.75761,0 -1.38896,-1.01015 -2.14657,-0.37881 -0.75762,0.63135 -1.76777,1.51523 -1.76777,1.51523 0,0 -0.12627,0.75762 -1.26269,1.26269 -1.13642,0.50508 -1.89404,1.26269 -2.77792,1.6415 -0.88388,0.37881 -5.80838,0.25254 -5.80838,0.25254 0,0 1.01016,0.12627 -1.89403,0 -2.90419,-0.12627 -2.39911,-0.12627 -3.283,-0.25254 -0.88388,-0.12627 -1.89403,0.25254 -2.65165,-0.75761 -0.75761,-1.01016 -0.63134,-0.63135 -1.51523,-1.38896 -0.88388,-0.75762 -0.50507,-1.76777 -2.27284,-1.76777 -1.76777,0 -0.75761,0.12627 -2.52538,-0.12627 -1.76777,-0.25254 -2.39911,-1.38896 -3.40927,-0.75762 -1.01015,0.63135 -1.64149,1.51523 -2.14657,2.02031 -0.50508,0.50508 -1.38896,0.37881 -2.02031,0.75761 -0.63134,0.37881 -2.52538,0.25254 -3.28299,0.25254 -0.75762,0 -1.38896,-0.12627 -2.02031,0 -0.63134,0.12627 -2.65165,-0.3788 -2.65165,-0.3788 l -3.15672,-0.63135 -2.14658,-0.50508 c 0,0 0,-0.3788 -1.13642,-0.88388 -1.13642,-0.50508 -3.15673,-1.6415 -3.15673,-1.6415 0,0 -0.63134,-0.3788 -1.89403,-1.01015 -1.26269,-0.63135 -1.76777,-2.14657 -2.90419,-2.77792 -1.13642,-0.63135 -2.90419,-1.6415 -2.90419,-1.6415 l -15.15229,-2.77792 c 0,0 -4.79822,0.25254 -5.68211,-0.3788 -0.88388,-0.63135 -0.75761,-1.76777 -4.54568,-1.38896 -3.78807,0.3788 -8.20749,-0.12627 -8.20749,-0.12627 0,0 -3.91434,0 -4.54569,0 -0.63134,0 -2.14657,-0.75762 -3.03046,-1.01016 -0.88388,-0.25253 -0.63134,-0.50507 -2.39911,-0.63134 -1.76776,-0.12627 -3.53553,1.26269 -4.54568,2.0203 -1.01016,0.75762 0,1.51523 -2.02031,2.02031 -2.0203,0.50508 -3.91434,0.50508 -4.67195,0.50508 -0.75762,0 -1.2627,0.12626 -3.283,0 -2.02031,-0.12627 -1.6415,0.12626 -3.03046,-0.63135 -1.38896,-0.75761 -2.27284,-1.13642 -2.77792,-1.76777 -0.50507,-0.63134 -1.01015,-2.0203 -1.51523,-1.76776 -0.50507,0.25253 0,1.01015 -1.51523,1.38896 -1.51522,0.3788 -2.0203,0.3788 -3.28299,0.50507 -1.26269,0.12627 -2.90419,0.12627 -3.91434,0.12627 -1.01015,0 -2.65165,-0.37881 -2.65165,-0.37881 l -2.14658,-1.76776 -1.76776,1.89403 -4.16688,1.26269 -3.53554,0.75762 c 0,0 -3.28299,0.63134 -4.16688,0.63134 -0.88388,0 -6.06091,-0.63134 -7.07106,-0.25253 -1.01016,0.3788 -5.42957,0.50507 -5.42957,0.50507 l -3.40927,1.13642 -3.15673,0.25254 c 0,0 -2.14657,-0.12627 -3.03045,-0.37881 -0.88389,-0.25253 -0.63135,-0.75761 -1.6415,-0.75761 -1.01015,0 -1.01015,-0.75761 -1.01015,0.75761 0,1.51523 0.88388,0.25254 -0.37881,2.27285 -1.26269,2.0203 -1.89404,2.0203 -2.77792,3.28299 -0.88388,1.26269 -2.27284,2.65165 -2.27284,2.65165 z" style="fill:#a0b260;fill-opacity:1;stroke:#000000;stroke-width:5;stroke-linecap:round;stroke-linejoin:round;stroke-miterlimit:4;stroke-opacity:1;stroke-dasharray:none"/>
      <path sodipodi:nodetypes="ccccccccccccccccccccccccccccccc" inkscape:connector-curvature="0" id="path4908" d="m 367.44299,292.47493 c -0.16836,2.10448 -0.33672,4.20897 -0.50508,6.31345 0.54717,1.47314 1.09433,2.94628 1.6415,4.41942 1.51523,1.6415 3.03046,3.283 4.54569,4.9245 0.67343,1.93612 1.34687,3.87225 2.0203,5.80837 2.4412,1.51523 4.88241,3.03046 7.32361,4.54569 2.18866,-0.54717 4.37733,-1.09433 6.56599,-1.6415 1.68359,0.58926 3.36717,1.17851 5.05076,1.76777 2.52538,-0.37881 5.05077,-0.75761 7.57615,-1.13642 9.47018,2.82001 19.44543,1.2206 20.45558,-3.66181 3.66181,0.25254 7.70242,-0.25253 9.09138,-1.89403 2.52538,2.94628 6.56599,2.60956 7.95495,0.88388 6.90271,5.13494 15.57319,2.69374 13.8896,-0.88388 6.48181,0.58925 11.70093,0.7997 12.6269,-5.05077 17.67767,3.283 29.7995,-16.16244 15.5311,-20.83439 0.7997,-6.103 -1.43105,-7.66032 -5.55584,-8.08122 6.60808,-6.60808 3.87225,-8.67047 -4.79823,-9.21764 9.09138,-10.43824 6.06092,-20.75022 -1.51522,-24.24366 5.85046,12.33228 1.72567,18.98245 -7.82869,19.69797 0.8418,1.6415 0.67344,3.03046 -0.50507,4.16688 9.76481,5.85047 11.06958,12.71109 4.67195,17.5514 1.47314,12.54273 -4.75613,16.49916 -14.14213,13.76333 -0.54717,7.70241 -7.02898,5.80838 -10.73287,4.16688 6.9448,-6.73435 5.55584,-14.98393 3.40926,-20.96067 -1.54324,14.71193 -8.1427,17.68751 -12.37437,17.80394 -0.71552,-3.57762 -1.43105,-7.15525 -2.14657,-10.73287 -1.6415,14.10005 -9.72272,20.11887 -22.72843,16.16244 -5.85047,3.6618 -13.84751,7.57614 -17.5514,0.75761 -4.67196,0.33672 -8.46003,-0.0842 -8.71257,-3.53553 -5.21912,0.58925 -9.55436,-2.73583 -8.83883,-9.97526 -1.47314,-0.29463 -2.94628,-0.58925 -4.41942,-0.88388 z" style="fill:#739040;fill-opacity:1;stroke:none"/>
      <path sodipodi:nodetypes="cccccccccccccccccccccccccc" inkscape:connector-curvature="0" id="path4890" d="m 57.300776,263.09122 c -0.224529,7.1373 0.583848,12.29545 7.348987,13.97888 -1.641498,4.84032 0,5.00868 2.272843,5.05077 -5.303301,13.17407 6.69226,13.97378 15.152288,13.38452 -2.65165,5.13494 0.883884,7.3657 4.545687,7.07107 -3.703893,17.84603 19.740059,15.86781 29.799499,7.3236 9.97526,11.44839 25.63262,-1.72568 23.48605,-4.29315 5.17703,2.52538 6.56599,-0.50507 9.84898,-0.75761 4.20897,0.4209 8.41794,0.84179 12.62691,1.26269 9.00719,1.43105 18.01439,2.8621 27.02158,4.29315 2.60956,4.29315 5.21912,8.58629 7.82868,12.87944 -3.11464,1.01015 -6.22927,2.02031 -9.34391,3.03046 -2.77792,1.26269 -5.55584,2.52538 -8.33376,3.78807 -3.53553,-0.4209 -7.07107,-0.84179 -10.6066,-1.26269 -1.26269,0.75762 -2.52538,1.51523 -3.78807,2.27285 -2.52538,0.25254 -5.05076,0.50507 -7.57614,0.75761 -6.9448,4.41942 -13.25825,1.89403 -17.42513,-3.03046 -2.82001,2.52538 -7.91286,1.38896 -11.11168,0 -2.35702,1.68359 -6.35555,2.10449 -10.10153,0.50508 -4.96658,5.13494 -13.84751,4.71405 -21.718278,-1.26269 -5.050763,3.61971 -11.490485,5.09285 -16.667517,-2.77792 -2.314933,0.54716 -4.882404,0.21045 -6.565991,-3.283 -17.930208,13.8896 -46.719555,-2.39911 -27.779195,-13.63706 -8.303122,-4.8072 -5.555839,-12.87944 8.08122,-16.92005 -6.944799,-6.56599 -5.050763,-10.85914 1.515229,-16.66752 -2.609561,-5.13494 -0.572547,-7.58125 1.489848,-11.70604 z" style="fill:#729048;fill-opacity:1;stroke:none"/>
      <path sodipodi:nodetypes="ccccscccccscccccccccccccccccccccccccccccc" inkscape:connector-curvature="0" id="path4916" d="m 262.8922,299.16719 3.53553,4.67196 5.80838,2.39911 4.41942,-0.12627 c 0,0 5.3033,-0.25254 6.06091,-0.75761 0.75762,-0.50508 5.93465,-3.66181 5.93465,-3.66181 2.98837,-1.47314 5.97673,-2.94627 8.9651,-4.41941 1.93613,-1.34687 3.87225,-2.69374 5.80838,-4.04061 9.00719,-1.85195 18.01439,-3.70389 27.02158,-5.55584 3.45136,2.90419 7.40779,3.40927 13.00572,1.51523 4.92449,2.52538 12.62691,0.3788 14.14213,-3.78808 0.21576,-0.59334 3.40927,-2.65165 3.40927,-2.65165 -0.0421,2.77792 2.56747,4.9245 5.93464,4.54569 0.4209,5.76629 4.25106,6.98689 9.59645,4.04061 0.29463,2.39911 2.48329,3.53553 4.29315,4.16688 5.7242,4.12479 11.70094,4.0827 17.93021,1.01015 6.5239,1.34687 13.55288,0.4209 15.40482,-6.56599 8.24958,-0.63135 8.92302,-4.04061 9.21765,-8.71257 2.48329,-1.09433 4.96658,-3.57762 4.04061,-7.07106 0.0421,-1.97822 -1.17852,-4.46151 -6.69227,-4.41942 4.41942,-1.93613 5.80838,-6.90271 2.27285,-12.2481 3.36717,-4.46151 3.70389,-7.28151 -0.50508,-11.86929 3.74598,-2.82001 5.97674,-7.66033 3.283,-12.62691 5.7242,0 9.68062,-3.03046 9.97525,-6.43972 8.08122,-4.62987 5.55584,-17.21469 -4.54568,-18.05648 7.28151,-5.55584 3.57762,-12.87944 -4.67196,-15.53109 2.65165,-4.16688 -1.38896,-8.96511 -5.80838,-10.48034 1.43105,7.32361 0.8418,9.34392 -7.3236,13.13199 4.16688,8.03913 3.6618,14.6893 -5.68211,18.05647 1.55732,6.90271 0.71553,12.79527 -6.69226,14.26841 4.29315,7.82868 3.03046,14.39467 -5.3033,22.34962 8.46003,10.39615 3.6618,19.78216 -12.50064,19.44544 -4.4615,6.90271 -14.22631,10.01735 -19.44543,1.76777 -6.09004,4.84985 -10.04405,4.1126 -16.66752,0.12626 -0.53778,6.15577 -3.69871,6.90307 -9.72272,5.93465 -9.42809,4.84032 -15.82572,6.01883 -19.95051,-2.14657 -8.89185,3.42825 -12.38454,2.04873 -16.92006,-3.53554 1.14532,4.488 -4.90495,4.86357 -11.23794,2.65165 l -11.23795,3.91434 -8.33376,9.09138 z" style="fill:#729048;fill-opacity:1;stroke:none"/>
      <path sodipodi:nodetypes="ccccccccccccccccccccccccccccccccccccccc" inkscape:connector-curvature="0" id="path4888" d="m 155.68976,328.58788 c 6.35554,2.39911 9.8069,0.75762 11.86929,-3.03045 7.91287,4.33523 13.67915,2.23075 14.64722,-1.76777 8.9651,1.26269 12.50064,0.63134 12.12183,-3.40927 -1.6415,-4.0827 -3.91434,-7.28151 -6.43973,-8.83883 -7.53406,1.47313 -19.9926,0.7997 -21.08693,-2.02031 2.82,-0.29463 5.51375,-1.5994 6.18718,-3.15672 7.53406,2.56747 12.54273,0.0842 14.64722,-4.41942 7.7445,2.94628 10.81704,-1.80985 12.6269,-5.17703 6.98689,3.283 15.23647,2.90418 17.93021,-3.03046 3.78808,7.53405 8.83883,8.24958 13.63706,6.31345 6.31346,4.29315 11.61675,4.29315 13.25825,-0.75761 3.03046,1.6415 8.46003,4.54568 11.36422,0.75761 4.25106,2.90419 6.98689,0.37881 7.44987,-1.89403 2.49114,5.79841 6.55133,7.41539 10.2278,6.31345 7.61823,1.68358 9.68062,-2.69374 12.6269,-5.17703 4.58778,1.47314 9.17555,-0.46299 9.97526,-3.15673 3.03046,-3.24091 5.80838,-4.33524 8.71257,-4.04061 10.14361,1.09433 20.28723,2.18867 30.43084,3.283 2.18866,-1.72568 4.37733,-3.45135 6.56599,-5.17703 7.95496,1.51523 12.37437,-0.12627 14.01587,-4.16688 5.7242,-0.96807 9.68063,0.46299 11.49048,6.9448 -0.67343,6.566 1.68359,11.61675 5.93465,13.63706 1.2206,10.52242 10.52243,12.96362 15.40483,8.83883 4.04061,3.7039 8.71257,3.74598 12.12183,1.26269 -0.75762,7.15525 -7.70242,5.21912 -11.36422,4.04061 -7.78659,7.28152 -16.96214,5.97673 -22.60216,1.01015 -2.35702,0.16836 -5.59793,-0.42089 -6.69226,-1.76776 -5.64002,6.86062 -21.50783,3.87225 -27.14785,-5.93465 -9.09137,-2.0203 -18.18275,-4.04061 -27.27412,-6.06091 -5.76629,1.34687 -12.54273,2.06239 -18.81409,-1.6415 -5.7242,7.70241 -14.35259,8.33376 -20.58186,0.37881 -3.03046,3.28299 -8.96511,4.67195 -14.01587,1.51522 -5.13494,3.95643 -10.77496,5.13494 -18.81409,2.77792 -5.7242,1.89404 -10.69078,5.17704 -18.30901,2.27285 -3.49345,6.56599 -5.7242,13.88959 -15.40483,11.36421 -2.39911,5.42957 -7.44987,8.5863 -14.77348,3.40927 -4.5036,5.59793 -10.01734,7.02897 -15.78363,2.0203 -6.86062,5.05076 -10.18571,4.41942 -14.14214,-1.51523 z" style="fill:#3d5a2a;fill-opacity:1;stroke:none"/>
      <path sodipodi:nodetypes="cccccccccccccccccccccccccccccccccccccccccccccccccccccc" inkscape:connector-curvature="0" id="path4022" d="m 96.791403,482.33676 c 3.102747,-4.76294 8.033987,-8.68341 12.298917,-13.72225 8.19271,-5.32373 19.59299,-5.64654 25.78702,-14.13729 5.51059,-6.83291 12.26744,-14.00611 21.70578,-14.19592 9.96175,-1.0625 20.30443,-1.04533 29.49309,-5.60707 10.80648,-3.47444 20.16152,-10.54657 26.28822,-20.11961 8.94215,-13.57866 13.20235,-29.59789 17.96356,-44.97445 1.29599,-7.00394 2.3215,-14.29333 1.26252,-21.39519 -6.7477,-6.52423 -8.22365,-17.86173 -18.13226,-21.03761 -6.36557,-2.47263 -13.60724,-4.79241 -16.50854,-11.6602 -3.42724,-6.54575 -7.71408,-12.47443 -12.71071,-17.87517 -1.75503,-0.67432 4.69737,-0.19917 6.48653,-3.97472 4.33314,-0.2778 6.15864,-2.1639 7.19384,2.50205 2.62879,6.35579 2.03011,14.80968 8.96791,18.59116 4.69781,3.36229 10.80367,3.17287 15.90858,5.64199 -2.12834,-7.02039 -3.26086,-15.08396 -0.89285,-22.1875 4.67358,-4.09547 12.34477,-5.7277 15.53571,0.71428 3.48313,10.01901 6.60116,20.83525 15.1892,27.81469 5.18598,4.87272 14.57972,8.70679 20.12907,2.3357 11.37614,-8.39999 22.00208,-18.20978 28.92865,-30.69805 3.00442,-4.67106 8.24002,-8.55424 13.9715,-8.56994 5.06081,-1.43115 10.54934,-0.11788 14.74911,2.5881 4.18008,4.59002 3.93134,11.52715 0.2755,16.37064 -4.34592,7.85089 -10.37017,14.56962 -16.05078,21.4574 3.4238,0.53072 8.26734,-2.86284 11.93112,-4.52231 9.31165,-5.16339 18.6868,-11.68035 23.07698,-21.77323 2.70524,-2.44539 7.58011,-6.57139 9.78585,-1.32582 -0.0548,10.66743 -9.55474,17.32343 -15.84677,24.81187 -10.51532,10.55337 -23.72053,18.02899 -33.29616,29.57503 -3.64949,3.47189 -4.21555,8.49599 -4.18411,13.23651 -0.5467,5.48148 -4.08135,9.84284 -6.80472,14.27157 -0.79468,13.67843 -0.33199,27.49562 -1.04553,41.21736 6.93669,4.06001 9.9608,13.62525 18.39704,14.9837 12.87466,-1.16653 27.37421,-5.35803 38.90898,2.7199 2.31206,3.64128 7.33451,3.62266 9.36665,7.1399 2.17974,6.95783 8.56347,10.85876 13.193,15.73225 3.59668,6.52237 -3.06472,1.89861 -6.68629,2.05 -7.11028,-0.72537 -13.764,-3.6368 -20.46205,-5.62891 -9.62289,0.87272 -19.10042,2.45609 -28.70291,3.24763 -8.92688,3.0375 -18.47995,5.15321 -27.81976,2.59227 -9.24604,-2.6569 -19.03766,-1.53064 -28.52257,-2.86858 -12.8845,-1.10962 -25.89528,-0.53902 -38.82471,-0.19337 -7.50614,4.36426 -15.6316,7.66734 -24.36993,8.33375 -5.606,4.92877 -13.08032,6.65263 -20.32932,7.07107 -6.54666,2.52032 -12.25671,6.41571 -16.6358,11.92659 -3.61491,4.57725 -8.9985,7.32965 -14.67893,8.3396 5.08965,-5.67238 10.99818,-11.41748 11.61675,-19.50857 2.16903,-6.42549 6.83591,-11.45243 11.23795,-16.41498 5.4977,-8.16927 -3.52337,-2.62632 -8.24095,-3.19521 -5.37496,0.56942 -11.41433,-1.6409 -15.75017,2.87953 -6.30006,5.76361 -12.37579,12.56925 -21.50521,13.81068 -9.51396,9.25741 -5.38181,-4.81867 1.17589,-7.18155 -9.40689,1.94635 -19.02092,3.70875 -27.02158,9.40705 -1.92179,0.56882 -3.741082,1.5814 -5.802307,1.40523 z" style="fill:#c29a80;fill-opacity:1;stroke:#000000;stroke-width:5;stroke-linecap:round;stroke-linejoin:round;stroke-miterlimit:4;stroke-opacity:1;stroke-dasharray:none"/>
      <path inkscape:connector-curvature="0" id="path4040" d="m 209.73981,440.71482 10.6066,-11.36422 -1.26269,-1.76776 -2.62714,-2.43358 -2.23214,-2.14285 -1.69643,-1.07143 -1.96429,-0.0893 c 0,0 -1.33928,-0.35714 -0.44643,-0.71428 0.89286,-0.35715 0.89286,-0.625 1.51786,-0.71429 0.625,-0.0893 0.44643,-0.53571 1.60714,-0.17857 1.16072,0.35714 1.60715,0.89286 2.14286,1.07143 0.53571,0.17857 0.35714,0.26786 1.25,0.89286 0.89286,0.625 1.16071,1.07142 1.60714,1.51785 0.44643,0.44643 0.26786,0.80357 0.89286,1.16072 0.625,0.35714 0.625,0.44643 0.98214,0.53571 0.35715,0.0893 0.98215,0.44643 1.33929,0.26786 0.35714,-0.17857 0.44643,-0.26786 1.16071,-0.71429 0.71429,-0.44643 0.98215,-0.53571 1.51786,-1.25 0.53571,-0.71428 0.44643,-0.44643 0.80357,-1.25 0.35714,-0.80357 0.35714,-1.16071 0.625,-1.78571 0.26786,-0.625 0.71429,-0.53572 0.53572,-1.875 -0.17858,-1.33929 -0.35715,-1.69643 -0.98215,-2.23214 -0.625,-0.53572 -1.42857,-1.875 -1.42857,-1.875 0,0 -0.98214,-0.71429 -2.14286,-1.16072 -1.16071,-0.44643 -0.80357,-0.625 -2.32142,-0.80357 -1.51786,-0.17857 -2.76786,0 -1.78572,-0.53571 0.98214,-0.53572 0.35714,-0.625 1.875,-0.625 1.51786,0 1.25,-0.0893 1.96429,0.17857 0.71428,0.26785 1.16071,0.26785 1.78571,0.80357 0.625,0.53571 0.80357,0.625 1.78572,1.33928 0.98214,0.71429 2.14285,1.51786 2.67857,1.51786 0.53571,0 0.80357,0.17857 1.16071,-0.44643 0.35714,-0.625 0.35714,-1.07143 0.35714,-1.69643 0,-0.625 -0.0893,-1.60714 0.625,-2.23214 0.71429,-0.625 1.875,-4.01786 1.875,-4.01786 0,0 1.33929,-1.875 1.60715,-2.32142 0.26785,-0.44643 1.875,-0.26786 0.89285,-1.96429 -0.98214,-1.69643 -0.44642,-0.71429 -1.07142,-1.69643 -0.625,-0.98214 -1.875,-0.89286 -0.625,-1.25 1.25,-0.35714 2.5,-0.53571 2.5,-0.53571 0,0 0,0.17857 0.44642,0 0.44643,-0.17857 0.17858,1.25 0.89286,-0.44643 0.71429,-1.69643 -0.53571,-2.32143 0.17857,-2.5 0.71429,-0.17857 2.41072,-1.33929 2.41072,-1.33929 0,0 1.07143,-1.78571 0.0893,-2.14285 -0.98214,-0.35715 -1.25,0.17857 -2.14285,-0.89286 -0.89286,-1.07143 -0.35715,-0.53572 -1.33929,-1.42857 -0.98214,-0.89286 -1.42857,-1.16072 -2.14286,-1.42857 -0.71428,-0.26786 -1.25,0.53571 -1.16071,-0.53572 0.0893,-1.07143 -0.625,-1.96428 0.80357,-1.16071 1.42857,0.80357 2.23214,1.60714 3.03571,1.96428 0.80358,0.35715 1.07143,0 2.32143,0.26786 1.25,0.26786 3.21429,-0.98214 3.21429,-0.98214 l 1.69643,-3.21429 1.07143,-1.96428 1.42857,-5.44643 1.33928,-5 0.35715,3.03571 -0.625,5.98214 -1.25,5.53572 c 0,0 -0.625,2.76786 -0.80358,3.125 -0.17857,0.35714 -2.58928,8.21428 -2.58928,8.21428 l -3.03572,6.60715 -5.17857,7.94643 -4.55357,8.92857 -5,8.125 -9.375,7.67857 z" style="fill:#986d5a;fill-opacity:1;stroke:none"/>
      <path sodipodi:nodetypes="ccccsssssssscssssscssssscssscssccsssssscssssssscsssssssssccsscsscsssssssscccsssc" inkscape:connector-curvature="0" id="path4034" d="m 232.27884,345.00287 0.82075,-0.94703 0.25253,-4.48255 1.38896,1.2627 c 0,0 0.63135,0.25253 1.26269,0.25253 0.63135,0 0.12627,-0.63134 0.75762,-1.38896 0.63134,-0.75761 -0.37881,-1.38896 1.38896,-1.51523 1.76776,-0.12626 1.89403,-0.75761 3.15672,-1.01015 1.26269,-0.25254 1.51523,-0.50507 2.90419,-1.13642 1.38896,-0.63134 1.26269,-0.88388 2.39911,-1.51523 1.13643,-0.63134 1.76777,-0.63134 2.77792,-1.76777 1.01016,-1.13642 0.88389,-0.75761 1.6415,-2.27284 0.75762,-1.51523 0.69448,-1.38896 0.69448,-1.38896 0,0 -5.68211,-6.31345 -5.80838,-5.42956 -0.12627,0.88388 0.44195,0.50507 0.44195,1.38895 0,0.88389 -0.12627,1.51523 -0.75762,2.65165 -0.63134,1.13642 -0.63134,0.88389 -1.6415,2.27285 -1.01015,1.38896 -1.38896,1.51522 -2.39911,2.39911 -1.01015,0.88388 -2.90419,2.14657 -2.90419,2.14657 0,0 -0.88388,0.50508 -2.0203,0.88389 -1.13642,0.3788 -1.13642,0.63134 -1.89404,0.63134 -0.75761,0 -1.76777,0 -2.27284,-0.75761 -0.50508,-0.75762 -0.25254,-0.37881 -0.50508,-1.13643 -0.25254,-0.75761 -0.3788,-0.88388 -0.50507,-1.64149 -0.12627,-0.75762 0.50507,-1.76777 0.50507,-1.76777 0,0 -0.3788,-0.37881 0.88389,-1.13642 1.26269,-0.75762 0.25253,-0.88389 2.0203,-1.38896 1.76777,-0.50508 1.51523,-0.37881 2.77792,-1.01015 1.26269,-0.63135 2.27284,-1.13643 2.77792,-1.51523 0.50508,-0.37881 0,0.25254 0.75761,-0.75762 0.75762,-1.01015 0,-0.50507 0.75762,-1.01015 0.75761,-0.50508 0.63134,-0.37881 1.13642,-0.63135 0.50508,-0.25253 1.51523,0 0.88388,-0.3788 -0.63134,-0.37881 -1.38896,-0.63135 -2.0203,-0.50508 -0.63135,0.12627 -0.25254,0.50508 -1.6415,1.38896 -1.38896,0.88388 -1.01015,0.88388 -2.65165,1.38896 -1.6415,0.50508 -3.03046,0.75762 -3.91434,0.50508 -0.88388,-0.25254 0,0.50507 -1.76777,-0.37881 -1.76776,-0.88388 -1.01015,-0.12627 -2.27284,-1.13642 -1.26269,-1.01015 -2.52538,-1.01015 -2.02031,-1.89404 0.50508,-0.88388 -0.12626,-0.88388 1.26269,-1.51523 1.38896,-0.63134 -0.3788,-0.50507 2.27285,-0.75761 2.65165,-0.25254 1.6415,0.37881 3.03046,-0.37881 1.38896,-0.75761 0.63134,-0.12627 1.89403,-1.01015 1.26269,-0.88388 2.65165,-0.50508 1.26269,-0.88388 -1.38896,-0.37881 -1.38896,-0.63135 -2.90419,-0.63135 -1.51523,0 -1.76776,0.63135 -3.28299,0 -1.51523,-0.63134 -2.39911,-0.88388 -2.39911,-0.88388 0,0 -1.38896,0 -2.02031,-1.38896 -0.63134,-1.38896 -0.12627,-1.01016 -1.26269,-1.89404 -1.13642,-0.88388 -1.6415,-0.63134 -1.6415,-1.6415 0,-1.01015 -0.25254,-0.75761 0.25254,-1.64149 0.50508,-0.88389 -0.12627,-0.50508 1.26269,-1.51523 1.38896,-1.01016 -0.88388,-0.12627 1.6415,-1.13642 2.52538,-1.01016 0.37881,-0.12627 3.91434,-1.51523 3.53553,-1.38896 3.03046,-1.13643 3.6618,-1.51523 0.63135,-0.37881 1.01016,-0.37881 1.6415,-1.26269 0.63135,-0.88389 0.50508,-2.02031 0.50508,-2.02031 l -1.01016,-1.6415 c 0,0 -1.76776,-1.13642 -3.91434,-1.64149 -2.14657,-0.50508 -2.0203,1.13642 -4.29314,0.88388 -2.27285,-0.25254 -3.283,-0.37881 -3.283,-0.37881 0,0 -1.76777,-1.01015 -2.77792,-1.26269 -1.01015,-0.25254 -1.38896,-0.88388 -2.65165,-0.37881 -1.26269,0.50508 -2.02031,1.38896 -2.39911,1.89404 -0.37881,0.50508 -0.50508,0.75761 -0.50508,1.6415 0,0.88388 1.13642,2.14657 1.38896,3.03046 0.25254,0.88388 2.02031,3.78807 2.52538,4.79822 0.50508,1.01015 0.63135,1.26269 0.88389,2.39911 0.25253,1.13642 0.50507,2.14658 0.88388,3.15673 0.37881,1.01015 0.63134,2.27284 0.88388,2.77792 0.25254,0.50508 1.13642,1.89403 1.26269,2.39911 0.12627,0.50508 0.37881,1.38896 0.63135,1.89404 0.25254,0.50507 0.75761,1.26269 0.75761,1.26269 l 1.38896,2.52538 1.76777,2.90419 c 0,0 1.89404,2.27284 1.89404,3.40926 0,1.13642 1.01015,1.89404 1.01015,3.78807 0,1.89404 0.88388,5.42957 0.88388,6.18719 0,0.75761 0.18941,4.67196 0.18941,4.67196 z" style="fill:#986d5a;fill-opacity:1;stroke:none"/>
      <path sodipodi:nodetypes="ccccsccsscccssccccccsccccsscccccccccc" inkscape:connector-curvature="0" id="path4038" d="m 230.25853,342.66689 0.31567,-4.23002 -1.26269,-5.36643 -1.57836,-5.3033 c 0,0 -2.39912,-2.96733 -2.14658,-2.33598 0.25254,0.63134 0.0631,3.15673 0.0631,3.15673 l -0.75762,1.64149 c 0,0 -0.0631,-1.19955 -1.19955,-1.19955 -1.13642,0 -0.94702,-1.38896 -1.4521,-1.76777 -0.50507,-0.37881 -1.51522,-2.02031 -1.51522,-2.02031 l -1.38896,-2.90419 c 0,0 -1.38897,1.95718 -2.02031,1.57837 -0.63135,-0.3788 -1.19955,-0.50508 -1.95717,-0.25254 -0.75761,0.25254 0.31567,0.44195 -1.19956,0.0631 -1.51523,-0.37881 -0.63134,-0.94702 -1.13642,-1.32582 -0.50508,-0.37881 -2.90419,-0.44195 -2.90419,-0.44195 0,0 -0.82074,-0.88388 -0.69447,-1.51523 0.12626,-0.63135 -2.58852,-2.71479 -2.58852,-2.71479 l -3.78808,-2.71478 -3.03045,-3.59867 c 0,0 -1.70464,-4.41941 -1.83091,-4.92449 -0.12627,-0.50508 -2.65165,-2.65165 -2.65165,-2.65165 l -4.23001,-1.89404 -1.51523,1.01015 4.23002,3.21986 c 0,0 1.6415,1.4521 1.6415,1.95718 0,0.50507 1.51522,2.33597 1.64149,2.84105 0.12627,0.50507 2.46225,4.73509 2.46225,4.73509 l 2.08344,3.03045 3.34613,2.20972 4.23002,2.08343 5.42956,2.20972 4.60882,2.3991 3.0936,2.71479 3.59867,4.79823 1.95716,3.97747 z" style="fill:#986d5a;fill-opacity:1;stroke:none"/>
      <path inkscape:connector-curvature="0" id="path4028" d="m 152.16111,501.07143 3.78807,-1.01015 5.17704,-3.40926 c 0,0 3.91434,-3.40927 4.41941,-3.78808 0.50508,-0.3788 3.15673,-3.91434 3.15673,-3.91434 l 3.03046,-3.28299 6.06091,-3.03046 c 0,0 2.02031,-1.89404 2.65165,-1.89404 0.63135,0 2.90419,-0.12627 2.90419,-0.12627 l 3.78807,0 3.78808,-0.88388 3.91434,-2.0203 5.80837,-2.77792 c 0,0 5.42957,-2.02031 5.93465,-2.14658 0.50508,-0.12627 4.04061,-1.26269 4.04061,-1.26269 l 6.56599,-2.27284 c 0,0 3.15673,-1.38896 3.78807,-1.6415 0.63135,-0.25254 2.77792,-1.76777 2.77792,-1.76777 l 3.66181,-1.26269 10.9854,0.25254 4.04062,-3.03046 14.39467,1.38896 15.40482,1.76777 13.00572,1.01015 5.55584,1.6415 7.57614,0.88388 c 0,0 7.32361,0 8.20749,0 0.88389,0 7.44988,-0.63134 7.44988,-0.63134 l 5.93464,-2.52538 c 0,0 5.68211,-0.37881 6.31346,-0.37881 0.63134,0 3.40926,-0.25254 4.54568,-0.37881 1.13642,-0.12627 4.04061,-0.88388 4.79823,-1.26269 0.75761,-0.37881 5.80837,-1.51523 5.80837,-1.51523 l 7.44988,-0.12627 9.34391,2.39912 3.15673,1.01015 1.26269,-3.03046 -5.17703,-2.14657 c 0,0 -3.283,-0.88389 -3.03046,-1.38896 0.25254,-0.50508 1.51523,-2.39912 1.51523,-2.39912 l 2.90419,-1.13642 -4.04061,0 c 0,0 -1.2627,0.88389 -2.02031,1.13642 -0.75761,0.25254 -4.29315,0.37881 -4.29315,-0.12626 0,-0.50508 0.12627,-1.38896 0.88389,-1.6415 0.75761,-0.25254 2.14657,-1.01015 2.90418,-1.13642 0.75762,-0.12627 2.02031,-0.88389 2.02031,-0.88389 0,0 -2.02031,-0.50507 -2.77792,-0.12627 -0.75761,0.37881 -1.13642,0.37881 -3.40927,1.51523 -2.27284,1.13642 -3.28299,2.27285 -4.41941,2.65165 -1.13642,0.37881 -2.52538,1.01016 -2.27285,-0.3788 0.25254,-1.38896 -0.75761,-1.2627 0.63135,-2.02031 1.38896,-0.75761 2.0203,-1.38896 3.15673,-1.89404 1.13642,-0.50507 3.15672,-1.64149 3.91434,-1.76776 0.75761,-0.12627 3.28299,-0.75762 4.54568,-0.75762 1.2627,0 5.42957,-0.25254 5.42957,-0.25254 0,0 1.6415,-1.01015 0.63135,-1.01015 -1.01015,0 -4.41942,-1.01015 -5.3033,-1.01015 -0.88388,0 -6.31346,-0.12627 -7.57615,0.12627 -1.26269,0.25254 -1.38895,0.75761 -3.53553,2.14657 -2.14657,1.38896 -4.92449,3.78808 -5.68211,4.67196 -0.75761,0.88388 -2.52538,2.0203 -3.15672,2.27284 -0.63135,0.25254 -1.89404,0.75762 -1.6415,-0.37881 0.25254,-1.13642 1.76776,-2.0203 2.14657,-2.65165 0.37881,-0.63134 -0.63134,-1.13642 -1.38896,-0.25253 -0.75761,0.88388 -1.6415,1.89403 -3.03046,2.65165 -1.38896,0.75761 -3.40926,1.64149 -3.91434,1.64149 -0.50507,0 -1.76776,-1.13642 -1.38896,-1.76776 0.37881,-0.63135 2.14658,-2.52538 3.15673,-3.66181 1.01015,-1.13642 1.01015,-1.89403 2.90419,-3.03045 1.89403,-1.13642 1.89403,-0.88389 3.91434,-2.14658 2.0203,-1.26269 5.55584,-4.29315 5.55584,-4.29315 0,0 -3.6618,0.63135 -6.9448,2.02031 -3.283,1.38896 -5.80838,1.6415 -7.07107,3.03046 -1.26269,1.38896 -2.77792,3.28299 -3.28299,4.79822 -0.50508,1.51523 -1.26269,3.6618 -2.77792,4.29315 -1.51523,0.63135 -3.283,2.39911 -3.53554,0.63135 -0.25253,-1.76777 0.75762,-5.17704 0.12627,-4.54569 -0.63134,0.63134 -0.50507,4.04061 -1.89403,5.17703 -1.38896,1.13642 -2.77792,3.40927 -4.54569,1.38896 -1.76777,-2.0203 -1.76777,-5.68211 -2.0203,-3.6618 -0.25254,2.0203 1.26269,4.29315 -1.6415,4.79822 -2.90419,0.50508 -4.29315,0.12627 -4.54569,-0.50507 -0.25254,-0.63135 1.26269,-3.78808 -0.25254,-2.02031 -1.51523,1.76777 -2.0203,5.05076 -4.67195,1.6415 -2.65165,-3.40927 -3.40927,-5.42957 -2.52538,-6.43972 0.88388,-1.01016 0.75761,-2.52539 2.27284,-3.91435 1.51523,-1.38895 4.04061,-4.41941 4.16688,-5.05076 0.12627,-0.63134 -5.17703,4.9245 -5.93465,6.43972 -0.75761,1.51523 -1.76776,2.65166 -1.89403,3.66181 -0.12627,1.01015 2.52538,4.54568 0.75761,5.17703 -1.76777,0.63134 -2.27284,0.25254 -4.41942,-0.12627 -2.14657,-0.37881 -4.41941,-1.51523 -6.43972,-1.89404 -2.0203,-0.3788 -4.92449,-1.26269 -6.43972,-2.39911 -1.51523,-1.13642 -3.03046,-1.38896 -3.6618,-2.39911 -0.63135,-1.01015 -1.76777,-1.6415 -2.52539,-3.40927 -0.75761,-1.76776 -1.38896,-3.91434 -1.38896,-3.91434 l -0.25253,2.77792 0.75761,2.02031 c 0,0 -1.51523,1.89403 -1.6415,0.12627 -0.12627,-1.76777 -1.26269,-2.52538 -1.38896,-4.29315 -0.12627,-1.76777 -1.13642,-5.3033 -0.75761,-5.93465 0.37881,-0.63134 1.38896,-4.79822 2.39911,-5.68211 1.01015,-0.88388 3.03046,-3.91434 3.40927,-4.41941 0.3788,-0.50508 3.28299,-3.53554 4.29314,-3.91434 1.01016,-0.37881 6.31346,-2.52539 7.32361,-2.52539 1.01015,0 2.90419,0.12627 4.41942,0.37881 1.51523,0.25254 3.53553,1.13642 3.53553,1.13642 0,0 0.50508,1.6415 -0.75761,2.90419 -1.26269,1.26269 -4.04061,2.52538 -4.79823,4.41942 -0.75761,1.89404 -1.51523,2.77792 -1.76776,3.91434 -0.25254,1.13642 -0.63135,1.76777 -0.25254,3.15673 0.3788,1.38896 0.12627,2.77792 2.0203,0 1.89404,-2.77792 2.27285,-2.90419 3.283,-4.67196 1.01015,-1.76776 0.37881,-1.89403 2.27284,-3.28299 1.89404,-1.38896 2.90419,-2.39912 4.04061,-2.39912 1.13642,0 1.89404,-0.25253 1.89404,-0.25253 l 1.26269,-1.51523 -0.75762,-15.5311 -0.3788,-13.38452 0,-13.13198 2.27284,-2.90419 2.77792,-4.41942 2.27284,-4.54569 1.13642,-6.18718 c 0,0 -0.12627,-2.90419 -0.12627,-3.78807 0,-0.88388 0.88389,-3.6618 0.88389,-3.6618 l 3.03046,-3.53554 c 0,0 -0.37881,-2.27284 -0.88389,-3.03046 -0.50507,-0.75761 -2.27284,-1.89403 -2.39911,-1.26269 -0.12627,0.63135 -3.6618,3.40927 -4.16688,2.90419 -0.50508,-0.50507 -1.51523,-0.25254 -1.51523,-2.0203 0,-1.76777 -1.01015,-2.14658 -1.01015,-3.40927 0,-1.26269 -0.12627,-1.38896 0.25254,-3.03046 0.37881,-1.64149 1.13642,-5.6821 0.37881,-4.79822 -0.75762,0.88388 -0.50508,0.50508 -1.13643,2.39911 -0.63134,1.89404 -1.01015,2.77792 -0.88388,4.16688 0.12627,1.38896 0,2.39911 0.88388,3.78807 0.88389,1.38896 0.88389,1.76777 1.13643,3.40927 0.25253,1.6415 0,2.39911 0,2.39911 0,0 -1.76777,-0.12627 -2.02031,-1.01015 -0.25254,-0.88389 0.12627,-0.25254 -0.37881,-2.27285 -0.50507,-2.0203 -0.88388,-2.39911 -1.01015,-3.6618 -0.12627,-1.26269 -0.37881,-1.26269 -0.25254,-2.39911 0.12627,-1.13642 1.51523,-3.283 0.12627,-2.27284 -1.38896,1.01015 -1.26269,3.91434 -1.13642,5.3033 0.12627,1.38896 0.37881,0.63134 0.12627,2.52538 -0.25254,1.89403 -0.37881,2.39911 0.12627,4.29315 0.50507,1.89403 0.63134,2.90419 1.26269,3.6618 0.63134,0.75761 0.25254,1.26269 1.13642,2.27284 0.88388,1.01016 1.38896,1.51523 1.38896,2.02031 0,0.50507 0.12627,0.88388 -1.13642,1.76776 -1.26269,0.88389 -2.65165,1.89404 -3.15673,2.27285 -0.50507,0.37881 0.12627,1.89403 -1.89403,0.37881 -2.02031,-1.51523 -3.03046,-2.52539 -3.03046,-2.52539 0,0 0.12627,1.51523 -0.75762,-1.51522 -0.88388,-3.03046 -1.13642,-2.90419 -1.26269,-3.78808 -0.12627,-0.88388 0,-2.52538 -0.63134,-2.52538 -0.63135,0 -1.76777,0.12627 -0.88389,2.39911 0.88389,2.27285 1.51523,3.91435 1.76777,5.05077 0.25254,1.13642 -0.12627,1.26269 0.50508,2.65165 0.63134,1.38896 0.63134,1.89403 1.26269,3.40926 0.63134,1.51523 1.01015,2.27285 1.51523,2.90419 0.50507,0.63135 0.3788,0.75762 1.38896,1.26269 1.01015,0.50508 1.38896,0.25254 1.64149,1.26269 0.25254,1.01015 1.01016,0.88389 0.25254,2.14658 -0.75761,1.26269 -2.52538,3.40926 -2.52538,3.40926 l -2.27284,2.27284 c 0,0 -0.88389,0.63135 -1.38896,0.63135 -0.50508,0 -1.51523,0.12627 -2.52538,0 -1.01016,-0.12627 -2.65165,-1.38896 -2.65165,-1.38896 0,0 -1.51523,-2.02031 -1.89404,-2.90419 -0.37881,-0.88388 -1.13642,-2.39911 -1.13642,-2.39911 0,0 -0.63135,-2.77792 -0.75762,-0.50508 -0.12626,2.27285 0.50508,4.16688 0.50508,4.16688 0,0 0.25254,0.75762 1.13642,1.51523 0.88389,0.75762 1.51523,1.01015 2.14658,2.02031 0.63134,1.01015 2.14657,1.89403 2.14657,1.89403 0,0 0.37881,-2.39911 1.51523,0.50508 1.13642,2.90419 1.38896,3.28299 1.13642,4.79822 -0.25254,1.51523 -0.37881,2.52538 -0.50508,3.66181 -0.12626,1.13642 -0.25253,2.0203 -0.25253,3.28299 0,1.26269 0.75761,2.02031 1.51523,0.88388 0.75761,-1.13642 1.13642,-2.39911 1.13642,-3.40926 0,-1.01015 -0.88389,-2.90419 -0.63135,-3.53553 0.25254,-0.63135 0.63135,-1.51523 1.6415,-1.6415 1.01015,-0.12627 1.76777,1.38896 1.51523,2.65165 -0.25254,1.26269 -0.63135,1.01015 -0.63135,3.78807 0,2.77792 -0.12627,5.42957 -0.3788,6.43972 -0.25254,1.01016 -0.50508,1.51523 -0.63135,2.52538 -0.12627,1.01016 -0.63135,1.89404 -0.63135,1.89404 0,0 -1.51522,0.25254 -2.27284,0.88388 -0.75761,0.63135 -3.15673,1.6415 -4.67195,2.02031 -1.51523,0.37881 -2.52539,0.75761 -3.66181,1.26269 -1.13642,0.50508 -2.65165,0.63135 -3.91434,1.76777 -1.26269,1.13642 -2.14657,1.38896 -2.39911,2.0203 -0.25254,0.63135 -1.13642,1.01015 -0.50508,1.51523 0.63135,0.50508 1.13643,0.50508 3.283,-0.37881 2.14657,-0.88388 3.03046,-1.13642 4.54569,-2.0203 1.51522,-0.88388 0.63134,-1.51523 3.15672,-1.51523 2.52538,0 2.39911,0 3.78807,0 1.38896,0 1.76777,-0.50508 2.52539,0.50508 0.75761,1.01015 1.26269,1.13642 0.88388,2.14657 -0.37881,1.01015 -0.25254,1.26269 -1.26269,1.6415 -1.01015,0.37881 -2.27284,0.50507 -3.6618,0.37881 -1.38896,-0.12627 -2.39912,-0.37881 -3.91435,0 -1.51522,0.3788 -3.91434,1.51522 -3.91434,1.51522 0,0 -2.39911,0.63135 -3.6618,1.13643 -1.26269,0.50507 -2.77792,1.13642 -3.283,1.89403 -0.50507,0.75762 -2.90418,2.52538 -3.15672,3.03046 -0.25254,0.50508 0,0.63134 -1.01015,2.14657 -1.01016,1.51523 -2.52539,4.54569 -2.14658,3.03046 0.37881,-1.51523 2.65165,-8.08122 2.90419,-9.34391 0.25254,-1.26269 1.13642,-6.06092 1.26269,-7.44987 0.12627,-1.38896 1.76777,-5.68211 1.89404,-6.9448 0.12627,-1.26269 0.3788,-4.9245 1.01015,-5.42957 0.63134,-0.50508 1.01015,-0.63135 2.0203,-1.26269 1.01016,-0.63135 1.38896,-0.88389 2.77792,-0.88389 1.38896,0 2.52539,0 3.15673,-0.12627 0.63135,-0.12627 6.06092,-0.50507 1.76777,-1.01015 -4.29315,-0.50508 -3.91434,-0.88388 -4.9245,-0.37881 -1.01015,0.50508 -3.03045,1.13642 -3.03045,1.13642 0,0 -1.89404,0.37881 -1.26269,-0.50507 0.63134,-0.88388 1.26269,-0.25254 1.76776,-2.65165 0.50508,-2.39911 0.12627,-2.14658 0.50508,-3.283 0.37881,-1.13642 1.13642,-2.0203 1.26269,-3.40926 0.12627,-1.38896 0.12627,-1.13642 0.12627,-3.03046 0,-1.89404 -0.25254,-4.79822 -0.25254,-4.79822 l 0.25254,-11.8693 0.12627,-4.16688 3.03046,-8.46002 2.52538,-6.06092 c 0,0 -0.37881,-6.06091 -0.88389,-5.05076 -0.50507,1.01015 -0.50507,5.17703 -0.75761,5.80838 -0.25254,0.63134 -1.89404,2.52538 -2.39911,3.40926 -0.50508,0.88388 -0.25254,0.75761 -1.76777,2.14657 -1.51523,1.38896 -1.51523,2.65165 -2.14657,3.283 -0.63135,0.63135 0,2.14657 -1.6415,0.50508 -1.6415,-1.6415 -0.50508,-1.51523 -2.14658,-2.14658 -1.64149,-0.63134 -1.38896,-0.88388 -3.28299,-1.26269 -1.89404,-0.37881 -2.90419,-0.88388 -5.80838,-0.75761 -2.90419,0.12627 -4.04061,1.01015 -5.42957,1.51523 -1.38896,0.50507 -2.39911,0.50507 -3.78807,1.51522 -1.38896,1.01016 -2.52538,1.51523 -2.14658,2.14658 0.37881,0.63134 3.66181,-1.01015 4.41942,-1.51523 0.75762,-0.50508 0.25254,-0.75761 2.39911,-1.26269 2.14658,-0.50508 2.02031,-0.88388 3.40927,-0.75761 1.38896,0.12626 0.75761,-0.12627 2.39911,0.12626 1.6415,0.25254 2.02031,0.50508 3.15673,1.26269 1.13642,0.75762 0.88388,0.63135 2.0203,1.38896 1.13642,0.75762 1.38896,1.2627 2.02031,1.6415 0.63134,0.37881 1.26269,1.13642 1.76776,2.14658 0.50508,1.01015 0.63135,0.63134 0.75762,1.64149 0.12627,1.01016 0.37881,1.01016 0,3.15673 -0.37881,2.14658 -0.37881,2.77792 -0.50508,4.41942 -0.12627,1.6415 -0.50507,1.51523 -0.63134,2.77792 -0.12627,1.26269 -1.01016,2.65165 -1.6415,3.53553 -0.63135,0.88389 -0.25254,1.26269 -1.6415,1.13642 -1.38896,-0.12627 -1.76777,-1.01015 -3.40926,-0.88388 -1.6415,0.12627 -4.79823,-1.01015 -2.77792,0.75761 2.0203,1.76777 3.91434,2.52539 4.54568,2.90419 0.63135,0.37881 1.13643,0.25254 1.38896,1.6415 0.25254,1.38896 0.50508,2.65165 0.50508,3.6618 0,1.01016 -1.38896,3.283 -1.38896,3.283 0,0 -2.14657,-0.25254 -3.6618,-0.88388 -1.51523,-0.63135 -1.89404,-0.63135 -3.66181,-0.88389 -1.76776,-0.25254 -0.88388,-0.50507 -4.54568,-0.25254 -3.66181,0.25254 -4.54569,0.12627 -5.80838,0.50508 -1.26269,0.37881 -1.76777,0.50508 -2.77792,1.01015 -1.01015,0.50508 -3.03046,1.38896 -2.0203,1.76777 1.01015,0.37881 1.51522,0.25254 3.91434,-0.12627 2.39911,-0.37881 3.53553,-0.63134 4.67195,-0.50507 1.13642,0.12626 2.02031,-0.25254 3.15673,0.12626 1.13642,0.37881 1.13642,0.63135 2.90419,1.26269 1.76776,0.63135 2.52538,0.75762 4.41942,1.89404 1.89403,1.13642 2.27284,0.88388 2.14657,2.02031 -0.12627,1.13642 -0.63135,2.52538 -1.13642,2.52538 -0.50508,0 -0.88389,-0.50508 -2.90419,-2.02031 -2.02031,-1.51523 -1.13642,-2.14657 -3.40927,-2.39911 -2.27284,-0.25254 -4.54568,-1.26269 -2.90418,0.63135 1.64149,1.89403 3.03045,2.27284 4.16687,3.03045 1.13643,0.75762 1.51523,0.63135 2.65166,2.65165 1.13642,2.02031 1.38896,2.52538 1.51522,4.04061 0.12627,1.51523 0.12627,-0.25253 0.12627,2.52538 0,2.77792 1.26269,7.44988 1.01016,8.33376 -0.25254,0.88389 -1.13643,5.17704 -1.13643,5.17704 0,0 0.75762,0.63134 -0.25253,2.77791 -1.01016,2.14658 -2.02031,3.78808 -2.02031,3.78808 0,0 -0.63134,-0.37881 -0.12627,-1.76777 0.50508,-1.38896 0.75762,-2.27284 0.88389,-3.15673 0.12626,-0.88388 -1.13643,-1.64149 -2.02031,0.88389 -0.88388,2.52538 -0.88388,2.52538 -1.26269,4.79822 -0.37881,2.27284 -1.26269,3.78807 -1.26269,5.05076 0,1.26269 -0.25254,3.03046 -0.63135,4.29315 -0.3788,1.26269 -1.13642,2.52538 -1.64149,3.15673 -0.50508,0.63134 -2.90419,2.27284 -3.53554,2.77792 -0.63134,0.50507 -1.26269,1.38896 -1.26269,-0.12627 0,-1.51523 -0.25254,-0.88388 0.75762,-3.53553 1.01015,-2.65166 1.01015,-1.01016 1.01015,-4.29315 0,-3.283 -1.01015,-2.14658 -0.12627,-4.79823 0.88388,-2.65165 1.01015,-2.39911 2.0203,-4.92449 1.01016,-2.52538 2.02031,-6.81853 0.63135,-5.17703 -1.38896,1.64149 -1.26269,3.28299 -2.27284,4.79822 -1.01016,1.51523 -2.02031,3.40927 -2.02031,3.40927 0,0 -0.63134,0.12627 -2.14657,-1.51523 -1.51523,-1.6415 -0.88389,-2.14658 -3.40927,-3.40927 -2.52538,-1.26269 -5.80838,-3.28299 -3.78807,-0.75761 2.0203,2.52538 3.6618,3.78807 4.67196,5.17703 1.01015,1.38896 1.76776,1.76777 2.14657,3.6618 0.37881,1.89404 0.37881,3.03046 0.25254,3.53554 -0.12627,0.50507 -1.89404,1.01015 -1.89404,1.01015 0,0 -1.26269,-0.63135 -1.51523,0 -0.25254,0.63134 0.37881,2.65165 0.50508,3.283 0.12627,0.63134 -0.12627,1.64149 -1.01015,2.27284 -0.88389,0.63134 -2.65165,1.26269 -4.79823,-0.37881 -2.14657,-1.6415 -0.63134,0.12627 -2.65165,-2.65165 -2.0203,-2.77792 -2.27284,-4.79822 -2.77792,-3.28299 -0.50507,1.51522 -1.6415,3.03045 0.12627,4.29314 1.76777,1.26269 2.52538,1.26269 3.15673,2.39912 0.63134,1.13642 1.6415,1.89403 1.13642,3.15672 -0.50508,1.26269 -0.88388,1.38896 -1.38896,1.51523 -0.50508,0.12627 -0.63135,0.25254 -2.02031,-0.63134 -1.38896,-0.88389 -1.26269,-1.89404 -1.76776,-0.88389 -0.50508,1.01016 0.88388,2.90419 0.88388,2.90419 0,0 -1.89404,1.38896 -3.28299,1.76777 -1.38896,0.37881 -2.52539,0.75761 -4.29315,1.01015 -1.76777,0.25254 -3.53554,0.88388 -3.53554,0.88388 0,0 0.12627,0.37881 -1.13642,0.12627 -1.26269,-0.25254 -4.04061,-1.76776 -4.04061,-1.76776 0,0 -1.76777,-1.38896 -2.14657,-2.02031 -0.37881,-0.63134 1.51523,-1.38896 -2.27285,-2.14657 -3.78807,-0.75762 -4.54568,-1.76777 -5.55584,-1.38896 -1.01015,0.3788 -1.26269,0.12627 -1.76776,0.3788 -0.50508,0.25254 -2.65165,-0.88388 -2.65165,-0.88388 0,0 -2.52538,-0.75761 -0.88389,-1.38896 1.6415,-0.63134 2.65165,-0.88388 3.283,-1.26269 0.63135,-0.37881 1.89404,-1.13642 4.16688,-0.88388 2.27284,0.25254 3.15673,0.50507 4.54569,0.63134 1.38896,0.12627 2.14657,0 2.90418,0.50508 0.75762,0.50507 0.75762,0.88388 2.14658,1.51523 1.38896,0.63134 1.38896,0.75761 2.14657,1.13642 0.75762,0.37881 1.89404,0 0.25254,-1.51523 -1.6415,-1.51523 -1.01015,-1.76777 -3.03046,-3.03046 -2.0203,-1.26269 -2.0203,-1.13642 -3.6618,-1.51523 -1.6415,-0.3788 -1.26269,-1.01015 -3.78807,-0.88388 -2.52538,0.12627 -5.05076,-0.75761 -5.93465,0.88388 -0.88388,1.6415 -0.88388,2.39912 -2.77792,3.40927 -1.89403,1.01015 -3.28299,1.01015 -3.28299,2.0203 0,1.01016 -1.26269,1.76777 -1.26269,1.76777 l -1.13643,0.50508 c 0,0 -5.80837,0.50507 -0.88388,1.01015 4.92449,0.50508 4.16688,0.12627 5.17703,0.50508 1.01015,0.3788 -0.75761,0 2.14658,1.13642 2.90419,1.13642 4.54568,1.38896 5.05076,1.51523 0.50508,0.12627 1.01015,-0.63135 2.52538,0.50507 1.51523,1.13642 2.65165,0.75762 3.15673,2.52538 0.50507,1.76777 1.89403,2.39912 0.3788,2.77792 -1.51522,0.37881 -2.27284,1.89404 -3.91434,0.25254 -1.64149,-1.6415 -0.63134,-1.01015 -2.0203,-1.89403 -1.38896,-0.88389 -0.88389,-0.75762 -1.38896,-0.88389 -0.50508,-0.12627 1.01015,0.75762 -1.01015,-0.37881 -2.02031,-1.13642 -1.89404,-1.89403 -3.40927,-2.14657 -1.51523,-0.25254 -1.6415,0 -3.78807,-0.88388 -2.14658,-0.88389 -0.63135,-1.26269 -3.283,-1.38896 -2.65165,-0.12627 -3.53553,-0.37881 -4.67195,0 -1.13642,0.3788 -4.41942,-0.25254 -1.26269,0.88388 3.15672,1.13642 2.90419,0.75762 4.67195,1.51523 1.76777,0.75761 3.40927,1.6415 4.41942,2.0203 1.01015,0.37881 2.14657,-0.12626 4.29315,1.51523 2.14657,1.6415 2.52538,1.89404 2.65165,2.65165 0.12627,0.75762 -0.12627,2.77792 -0.12627,2.77792 l -3.15673,2.27285 -1.26269,0.3788 c 0,0 -1.6415,0.37881 -1.76776,-0.3788 -0.12627,-0.75762 -0.63135,-1.76777 -0.88389,-1.26269 -0.25254,0.50507 0.63135,1.26269 -0.50507,1.89403 -1.13643,0.63135 -1.6415,0.75762 -2.39912,1.01015 -0.75761,0.25254 -2.0203,1.2627 -2.65165,-0.75761 -0.63134,-2.0203 -0.75761,-3.15673 -1.13642,-2.65165 -0.37881,0.50508 -0.12627,1.76777 -0.12627,2.39911 0,0.63135 -0.88388,1.13642 -1.6415,0.63135 -0.75761,-0.50508 -1.76776,-1.26269 -1.76776,-1.26269 l -2.52538,-1.26269 -2.65165,-2.65165 c 0,0 -1.51523,-0.25254 -2.27285,-0.75762 -0.75761,-0.50508 -0.75761,-1.13642 -2.0203,-1.26269 -1.26269,-0.12627 -2.65165,-1.26269 -3.03046,-0.50508 -0.37881,0.75762 -3.283,1.01016 -1.26269,2.27285 2.0203,1.26269 2.77792,0.88388 5.05076,1.89403 2.27284,1.01016 2.90419,1.26269 3.78807,1.76777 0.88389,0.50508 1.6415,0.88388 2.52539,1.76777 0.88388,0.88388 2.27284,0.63134 0.50507,2.52538 -1.76777,1.89403 -0.88388,2.52538 -2.90419,2.90419 -2.0203,0.3788 -3.15672,0 -5.3033,0.75761 -2.14657,0.75762 -2.90419,0.25254 -5.55584,1.89404 -2.65165,1.6415 -2.65165,1.89403 -3.91434,3.28299 -1.26269,1.38896 -1.76777,2.02031 -3.15672,3.53554 -1.38896,1.51523 -1.6415,2.27284 -3.03046,3.40926 -1.38896,1.13642 -2.90419,2.27285 -3.40927,3.15673 -0.50507,0.88388 -0.75761,1.01015 -1.13642,2.0203 -0.37881,1.01016 -3.15673,4.79823 -3.6618,5.05077 -0.50508,0.25253 -3.15673,1.89403 -3.15673,1.89403 z" style="fill:#986d5a;fill-opacity:1;stroke:none"/>
      <path inkscape:connector-curvature="0" id="path4026" d="m 98.496763,480.61584 3.661797,-3.03045 2.77792,-2.14658 c 0,0 3.6618,-2.27284 4.16688,-2.52538 0.50508,-0.25254 3.78807,-1.13642 3.78807,-1.13642 l 4.04061,-0.12627 c 0,0 2.52538,-1.38896 2.52538,-1.89404 0,-0.50507 0,-1.76776 0,-1.76776 0,0 0.25254,-0.75762 1.26269,0 1.01016,0.75761 2.90419,1.38896 3.53554,0.88388 0.63134,-0.50508 4.79822,-2.52538 4.79822,-2.52538 l 2.77792,-3.03046 1.13642,-0.12627 1.6415,-1.26269 c 0,0 -0.50508,-0.75761 0.50508,-1.01015 1.01015,-0.25254 2.27284,-1.13642 2.27284,-1.13642 0,0 0.88388,-0.63135 1.38896,-1.26269 0.50508,-0.63135 0.75761,-1.01016 1.38896,-1.38896 0.63135,-0.37881 1.38896,-0.63135 2.0203,-1.13642 0.63135,-0.50508 1.51523,-1.6415 1.51523,-1.6415 l 1.01016,-1.38896 1.76776,-0.63135 2.27285,-0.88388 1.89403,-1.26269 2.39911,-0.50508 c 0,0 1.6415,0.25254 2.39912,0.12627 0.75761,-0.12627 2.65165,0 3.15672,-0.37881 0.50508,-0.3788 0.88389,-0.25253 1.26269,-0.88388 0.37881,-0.63134 2.39912,-1.76777 2.39912,-1.76777 l 3.03045,-1.01015 4.9245,0 4.92449,2.65165 c 0,0 0.25254,1.76777 2.65165,2.52538 2.39911,0.75762 5.68211,0 5.68211,0 l 4.54569,-1.38896 -2.52538,-0.75761 -2.65166,-1.76777 c 0,0 0.12627,-1.13642 1.01016,-1.13642 0.88388,0 3.53553,-0.50508 4.41941,0 0.88389,0.50508 2.02031,0.75761 2.52539,0.75761 0.50507,0 1.89403,0.63135 2.65165,1.01016 0.75761,0.3788 2.90419,-0.12627 3.40926,-0.37881 0.50508,-0.25254 5.42957,-2.90419 5.42957,-2.90419 l 6.56599,-3.15673 -5.42957,4.79823 -7.95495,5.3033 -7.70241,3.03046 -4.79823,2.39911 -5.55584,2.0203 -5.55583,1.01016 -5.93465,1.76776 -4.29315,-0.63134 1.6415,-2.27284 c 0,0 1.6415,-1.76777 2.14657,-1.89404 0.50508,-0.12627 5.17704,-1.51523 5.17704,-1.51523 l 3.91434,-1.13642 3.15672,-0.75761 -1.89403,-1.6415 -4.16688,-1.26269 -4.29315,-0.37881 -5.17703,-0.25254 -4.16688,1.26269 -2.65165,1.38896 0.25254,0.63135 2.77792,0.12627 3.40926,1.51522 1.51523,2.02031 -0.37881,1.89404 -2.90419,1.89403 -3.6618,1.01015 -5.17703,1.89404 -3.53554,2.65165 -3.15672,3.03046 -2.52538,3.15673 -3.91434,1.76776 -5.68211,2.52538 -4.04061,1.89404 -4.54569,1.89404 3.03046,-3.03046 4.41942,-2.65165 4.54568,-2.65165 4.04061,-3.283 2.65165,-2.77792 4.79823,-3.40926 3.28299,-1.76777 c 0,0 1.89404,-1.76777 2.39912,-2.02031 0.50507,-0.25253 3.6618,-1.26269 3.6618,-1.26269 0,0 3.03046,0.25254 3.91434,-0.25253 0.88388,-0.50508 0.50508,-2.14658 0.50508,-2.14658 l -3.40927,-1.38896 -5.3033,-0.25254 -5.3033,2.02031 -4.29315,3.15673 -3.53553,5.42957 -5.80838,4.67195 -5.17703,2.14658 -6.06092,1.76776 -6.31345,1.38896 -5.17703,2.02031 -4.04061,2.14657 -5.3033,2.39911 z" style="fill:#986d5a;fill-opacity:1;stroke:none"/>
      <path sodipodi:nodetypes="ccccssssssscssssscscsssssscsscssssscsccsccccssccccccccccccccccc" inkscape:connector-curvature="0" id="path4030" d="m 311.13387,354.97812 -1.89404,-1.76777 -1.38896,-1.64149 -0.50507,-1.38896 c 0,0 0.50507,-0.25254 0.63134,-1.01016 0.12627,-0.75761 0.37881,-0.75761 0.12627,-1.51522 -0.25254,-0.75762 -0.63135,-0.75762 -0.63135,-1.6415 0,-0.88389 -0.12626,-0.63135 -0.12626,-1.51523 0,-0.88389 0,-1.89404 0,-2.65165 0,-0.75762 0,-1.26269 0,-2.02031 0,-0.75761 -0.25254,-1.6415 0.25253,-2.14657 0.50508,-0.50508 0.75762,-1.13642 0.75762,-1.13642 0,0 1.38896,-1.6415 1.26269,-0.25254 -0.12627,1.38896 -0.50508,1.89403 -0.63135,3.15673 -0.12626,1.26269 -1.13642,1.51522 -0.25253,2.77792 0.88388,1.26269 1.13642,0.75761 1.13642,1.76776 0,1.01015 -0.63135,1.01015 0.12627,1.89404 0.75761,0.88388 1.64149,1.26269 1.64149,1.26269 0,0 1.13643,-0.75762 0.50508,-1.76777 -0.63134,-1.01015 -1.13642,-2.0203 -1.13642,-2.0203 0,0 0.88388,-0.37881 1.6415,0.3788 0.75761,0.75762 -0.37881,1.26269 1.38896,1.13643 1.76776,-0.12627 1.64149,0.12626 2.52538,-0.88389 0.88388,-1.01015 0.75761,-1.01015 1.76777,-1.89403 1.01015,-0.88389 2.14657,-2.02031 2.14657,-2.90419 0,-0.88389 -0.25254,-1.51523 -0.25254,-2.27285 0,-0.75761 -0.37881,-2.90418 -0.37881,-2.90418 0,0 -0.25253,-1.01016 0.37881,-1.6415 0.63135,-0.63135 0.88388,-1.38896 1.01015,-0.37881 0.12627,1.01015 -0.3788,2.27284 -0.12627,3.03046 0.25254,0.75761 -0.12627,1.51523 0.50508,2.14657 0.63135,0.63135 0.88388,1.38896 1.89404,1.01015 1.01015,-0.3788 1.89403,-1.01015 2.65165,-1.89403 0.75761,-0.88388 1.01015,-1.26269 1.26269,-2.27284 0.25254,-1.01016 0.50507,-1.51523 0.37881,-2.65165 -0.12627,-1.13643 -0.50508,-2.39912 -0.50508,-2.39912 0,0 0.75761,-0.3788 1.51523,0.63135 0.75761,1.01015 2.52538,0.63134 2.52538,0.63134 l 3.40926,-1.76776 c 0,0 0.25254,-0.12627 1.38896,-1.6415 1.13643,-1.51523 5.80838,-5.42957 5.80838,-5.42957 l 5.55584,-6.06092 5.17703,-6.18718 2.14658,-4.04061 c 0,0 -0.12628,-1.38896 -10e-6,-2.02031 0.12627,-0.63134 10e-6,0.63135 0.63135,-0.25253 0.63135,-0.88389 1.38896,-0.12627 1.38896,-0.12627 l 0.75762,1.01015 0,1.13642 -0.12628,1.51523 -1.13641,2.27284 -1.01016,2.52539 -1.6415,2.90418 -2.39911,3.53554 -3.40926,4.29315 -5.55584,5.42957 -6.31346,4.92449 -5.17703,4.54569 -4.79822,4.29314 -4.9245,3.53554 -6.31345,5.55584 -3.15673,3.78807 z" style="fill:#986d5a;fill-opacity:1;stroke:none"/>
      <path sodipodi:nodetypes="ccsscccccccccccccscsscscccccccccccsssscscsscssssssssscsssssccssssscsssscscsssssssccsscccccc" inkscape:connector-curvature="0" id="path4032" d="m 293.77187,343.4245 2.14657,-4.10374 c 0,0 1.95718,-3.15673 2.46225,-3.4724 0.50508,-0.31568 2.20971,-1.8309 2.65165,-2.20971 0.44194,-0.37881 6.43973,-2.20971 6.43973,-2.20971 l 4.73508,-0.63134 0.56822,-2.20972 2.08344,-2.27284 3.78806,-4.60882 3.66181,-4.54569 3.91435,-5.42956 3.09358,-5.05077 1.70463,-4.04061 0.69449,-2.08343 0.12626,-1.70464 -0.69447,-1.32583 -1.51523,-2.08343 c 0,0 -0.94702,-1.89405 -1.6415,-1.76778 -0.69448,0.12627 -1.76777,-1.19955 -2.27284,-0.69447 -0.50508,0.50507 -1.32583,-0.37881 -2.20971,0.31567 -0.88389,0.69448 -1.4521,1.32583 -2.20971,1.6415 -0.75762,0.31567 -3.34613,0.88388 -3.66181,1.01015 -0.31567,0.12627 -2.2097,0.1894 -2.96732,0.1894 -0.75761,0 -2.71478,-0.1894 -3.28299,-0.56821 -0.56822,-0.3788 -1.95717,-1.45209 -1.95717,-1.45209 l -1.67307,1.16799 c 0,0 -1.42053,1.04172 -1.5468,1.29426 -0.12627,0.25253 -0.85231,0.88388 -1.04171,1.26269 -0.18941,0.3788 -0.63135,0.50507 -0.94703,1.13641 -0.31567,0.63135 -0.4735,0.18941 -0.22096,0.44195 0.25253,0.25254 1.76776,1.26269 1.76776,1.26269 l 4.41942,0.44194 4.41942,0.31568 c 0,0 4.04061,2.39911 4.29315,2.52538 0.25253,0.12627 1.32582,0.88388 2.33597,1.57836 1.01016,0.69448 0.56821,0.50508 1.57837,1.6415 1.01015,1.13642 1.19955,1.45209 1.07328,1.70463 -0.12627,0.25254 -0.1894,0.63135 -0.82075,0.37881 -0.63134,-0.25254 -1.19955,-0.88389 -2.08344,-1.26269 -0.88388,-0.37881 -2.71478,-1.32583 -1.76776,-0.12627 0.94702,1.19955 1.13642,1.45209 0.94702,2.08344 -0.18941,0.63134 -0.44195,1.38896 -1.4521,1.13642 -1.01015,-0.25254 -0.94702,-0.25254 -2.52538,-1.26269 -1.57836,-1.01015 -3.4724,-1.4521 -3.4724,-1.4521 0,0 -1.70463,-1.19955 -0.88388,0.18941 0.82075,1.38896 0.63134,1.07329 1.76776,1.89403 1.13643,0.82075 0.25254,0 1.57837,1.13643 1.32582,1.13642 1.38896,1.38896 1.70463,2.14657 0.31567,0.75761 0.94702,0.82075 0.25254,1.51523 -0.69448,0.69448 -0.88389,1.38896 -1.76777,0.69448 -0.88388,-0.69448 -1.07329,-1.26269 -1.70463,-1.13642 -0.63135,0.12627 -0.12627,1.51523 0.56821,2.20971 0.69448,0.69448 1.01015,1.19955 0.63135,2.27284 -0.37881,1.07329 -0.88389,2.14657 -1.4521,2.33598 -0.56821,0.1894 -1.07329,0.82075 -2.0203,-0.88389 -0.94702,-1.70463 -1.6415,-2.08344 -2.33598,-2.96732 -0.69448,-0.88388 -1.76777,-1.70463 -2.20971,-1.95717 -0.44194,-0.25254 -2.02031,-0.88388 -2.96732,-1.26269 -0.94702,-0.37881 -1.57837,-0.82075 -2.39912,-0.82075 -0.82075,0 -1.76776,-0.31567 -3.09359,-0.25254 -1.32582,0.0631 -2.27284,0.0631 -2.77792,0.25254 -0.50507,0.1894 -1.51523,0.31567 -1.95717,0.69448 -0.44194,0.37881 -2.0203,1.32582 -0.75761,1.89404 1.26269,0.56821 2.27284,0.63134 2.96732,0.63134 0.69448,0 1.38896,-0.56821 2.20971,-0.56821 0.82075,0 1.57836,0 2.65165,0.56821 1.07329,0.56821 3.78807,1.38896 3.78807,1.38896 0,0 1.26269,0.1894 1.70463,0.56821 0.44195,0.37881 0.50508,0.88389 1.38896,1.57836 0.88389,0.69448 1.89404,1.57837 2.58852,2.20971 0.69448,0.63135 0.88388,1.19956 1.01015,1.89404 0.12627,0.69448 0.25254,0.88388 0.31567,1.45209 0.0631,0.56821 -1.26269,1.51523 -1.51522,1.51523 -0.25254,0 -1.57837,0.0631 -1.89404,0.31568 -0.31567,0.25253 -2.58852,0.82074 -3.03046,0.3788 -0.44194,-0.44194 -1.01015,-1.07328 -1.8309,-1.45209 -0.82075,-0.37881 -1.89404,-0.63135 -3.40926,-1.07329 -1.51523,-0.44194 -2.71479,-0.82075 -3.85121,-1.01015 -1.13642,-0.1894 -3.09359,-0.1894 -3.53553,-0.31567 -0.44195,-0.12627 -1.19956,-0.63135 -2.02031,-0.25254 -0.82075,0.37881 -1.70463,1.95717 -0.0631,2.33598 1.6415,0.3788 1.89404,-0.0631 3.59867,0.0631 1.70463,0.12627 2.84105,0.0631 4.35628,0.44194 1.51523,0.37881 3.4724,1.19956 4.60882,1.6415 1.13642,0.44194 2.52538,0.1894 0.94702,1.57836 -1.57836,1.38896 -3.40926,2.14658 -3.6618,2.20971 -0.25254,0.0631 -1.01015,0.31567 -1.38896,0.50508 -0.37881,0.1894 -2.27284,1.76777 -2.27284,1.76777 l -2.20971,4.48255 -0.63135,1.76776 z" style="fill:#986d5a;fill-opacity:1;stroke:none"/>
      <g transform="translate(1.0101526,23.233508)" id="g3968">
        <path style="fill:none;stroke:#351200;stroke-width:1px;stroke-linecap:round;stroke-linejoin:round;stroke-opacity:1" d="m 221.42857,292.8979 c 5.74405,3.54167 11.66667,2.61905 18.03572,-1.69643" id="path3936" inkscape:connector-curvature="0" sodipodi:nodetypes="cc"/>
        <path sodipodi:nodetypes="cc" inkscape:connector-curvature="0" id="path3950" d="m 314.01786,293.25504 c 1.16071,-0.80357 -7.23215,-7.67858 -17.41072,-6.07143" style="fill:none;stroke:#351200;stroke-width:1px;stroke-linecap:round;stroke-linejoin:round;stroke-opacity:1"/>
        <path style="fill:none;stroke:#000000;stroke-width:2;stroke-linecap:round;stroke-linejoin:round;stroke-miterlimit:4;stroke-opacity:1;stroke-dasharray:none" d="m 198.21429,281.29075 c 7.52976,16.69643 16.13095,10.89286 24.19642,16.33929" id="path5884" inkscape:connector-curvature="0" sodipodi:nodetypes="cc"/>
        <path style="fill:none;stroke:#351200;stroke-width:1px;stroke-linecap:round;stroke-linejoin:round;stroke-opacity:1" d="m 214.82143,304.50505 c 2.97619,-0.65476 3.00595,-2.02381 3.125,-4.10715" id="path3954" inkscape:connector-curvature="0" sodipodi:nodetypes="cc"/>
        <path style="fill:none;stroke:#000000;stroke-width:2;stroke-linecap:round;stroke-linejoin:round;stroke-miterlimit:4;stroke-opacity:1;stroke-dasharray:none" d="m 185.98214,277.89789 c 7.35693,6.72619 10.5652,17.55953 14.28572,20.17858 3.69048,3.80952 12.06845,4.36012 17.80134,9.22991 5.73288,4.86979 7.48139,13.43378 12.10937,17.10937" id="path5886" inkscape:connector-curvature="0" sodipodi:nodetypes="cccc"/>
        <path sodipodi:nodetypes="cc" inkscape:connector-curvature="0" id="path3952" d="m 225,311.6479 c 1.99405,-1.19047 2.29167,-5.05952 2.41072,-7.14286" style="fill:none;stroke:#351200;stroke-width:1px;stroke-linecap:round;stroke-linejoin:round;stroke-opacity:1"/>
        <path style="fill:none;stroke:#000000;stroke-width:2;stroke-linecap:round;stroke-linejoin:round;stroke-miterlimit:4;stroke-opacity:1;stroke-dasharray:none" d="m 220.44643,292.09432 c 0.80357,6.93453 7.41072,10.56548 7.76786,14.10715 1.84524,6.39881 2.17262,9.40476 2.05357,13.83928 -0.17857,5.11905 1.51786,9.70238 0.80357,12.14286 -1.19048,15.41667 -2.29167,16.72619 -4.91072,24.55357 -2.23214,7.61905 -5,15.14881 -8.30357,22.58929 -3.33333,8.54167 -8.63095,15.92262 -15.35714,22.41071 -5.77381,5.26786 -12.97619,8.21429 -20.26786,10.71429 -5.80357,2.47024 -12.05357,3.77976 -18.21428,3.92857 -5.44643,-0.20833 -12.14286,1.45833 -15.26786,2.05357 -9.46428,3.60119 -13.92857,13.54167 -19.28571,16.96429 -9.79167,7.73809 -23.77976,5.3869 -26.69643,17.58928 -6.458334,2.47024 -7.291668,3.95833 -6.785717,6.07143 4.166667,0.29762 12.976187,-7.08333 22.142857,-8.48214 5.41667,-0.8631 10.11905,-2.79762 15.17857,-4.19643" id="path5888" inkscape:connector-curvature="0" sodipodi:nodetypes="ccccccccccccccc"/>
        <path style="fill:none;stroke:#351200;stroke-width:1;stroke-linecap:round;stroke-linejoin:round;stroke-miterlimit:4;stroke-opacity:1;stroke-dasharray:none" d="m 154.64286,430.21933 c 10.05952,1.19047 9.7619,4.88095 3.39285,8.39285" id="path3918" inkscape:connector-curvature="0" sodipodi:nodetypes="cc"/>
        <path style="fill:none;stroke:#000000;stroke-width:2;stroke-linecap:round;stroke-linejoin:round;stroke-miterlimit:4;stroke-opacity:1;stroke-dasharray:none" d="m 149.10714,430.84432 c -8.77976,2.94643 -11.13095,11.69643 -15.625,15.26786 -4.1369,2.08333 -8.45238,4.16667 -9.375,6.25 -2.08333,1.99405 -2.64881,4.43452 -2.58928,7.05357 4.07738,-5.38691 12.44047,-4.52381 18.125,-9.19643 6.30953,-5.95238 10.56547,-11.54761 16.25,-11.69642 11.25,1.04166 15.26786,-0.32739 20.35714,-2.23215 0.625,-0.3869 1.25,-0.77381 1.875,-1.16071" id="path5890" inkscape:connector-curvature="0" sodipodi:nodetypes="cccccccc"/>
        <path style="fill:none;stroke:#351200;stroke-width:1;stroke-linecap:round;stroke-linejoin:round;stroke-miterlimit:4;stroke-opacity:1;stroke-dasharray:none" d="m 156.25,421.11218 c 2.44048,5.29762 8.80953,5.77381 12.14286,5.71429 7.20238,0.29762 9.94047,3.63095 13.03571,6.78571" id="path3916" inkscape:connector-curvature="0" sodipodi:nodetypes="ccc"/>
        <path style="fill:none;stroke:#351200;stroke-width:1;stroke-linecap:round;stroke-linejoin:round;stroke-miterlimit:4;stroke-opacity:1;stroke-dasharray:none" d="m 185,433.07647 c 6.4881,-0.17857 9.40476,1.78571 13.75,2.5" id="path3920" inkscape:connector-curvature="0" sodipodi:nodetypes="cc"/>
        <path style="fill:none;stroke:#351200;stroke-width:1;stroke-linecap:round;stroke-linejoin:round;stroke-miterlimit:4;stroke-opacity:1;stroke-dasharray:none" d="m 203.03571,437.36218 c 6.42857,2.97619 7.5,8.09524 7.5,10.53572" id="path3922" inkscape:connector-curvature="0" sodipodi:nodetypes="cc"/>
        <path style="fill:none;stroke:#000000;stroke-width:2;stroke-linecap:round;stroke-linejoin:round;stroke-miterlimit:4;stroke-opacity:1;stroke-dasharray:none" d="m 238.92857,377.18361 c -14.52381,24.03274 -10.6994,26.14583 -16.78571,31.25 -9.25595,7.8869 -19.13691,15.77381 -29.64286,21.78571 -4.19643,0.20833 -5.98214,1.13095 -6.42857,2.5 -4.01786,0.47619 -6.78572,1.13096 -8.03572,3.03572 -3.77976,2.02381 -5.05952,4.22619 -5.17857,6.60714 -19.375,20.41667 -4.10714,17.17262 -23.03571,35.53572 18.57143,-3.72024 11.51786,-12.88691 32.14286,-20.53572 11.45833,-0.0893 15.95238,-4.28571 20.17857,-6.96428 13.30357,-1.93453 17.5,-4.94048 23.57143,-8.21429 3.77976,-2.58929 11.04166,-0.53572 13.21428,-3.21429 3.72024,-2.20238 4.40476,-5.47619 6.60714,-8.21428" id="path5892" inkscape:connector-curvature="0" sodipodi:nodetypes="cccccccccccc"/>
        <path style="fill:none;stroke:#351200;stroke-width:1px;stroke-linecap:round;stroke-linejoin:round;stroke-opacity:1" d="m 233.57143,290.75504 c 3.18452,-0.65476 5.47619,-2.47024 6.07143,-5.44643" id="path3940" inkscape:connector-curvature="0" sodipodi:nodetypes="cc"/>
        <path style="fill:none;stroke:#000000;stroke-width:2;stroke-linecap:round;stroke-linejoin:round;stroke-miterlimit:4;stroke-opacity:1;stroke-dasharray:none" d="m 239.01786,282.89789 c 3.03571,10.77381 8.57143,17.70834 15,22.67858 5,3.09524 9.28571,4.1369 13.125,3.39285" id="path5894" inkscape:connector-curvature="0" sodipodi:nodetypes="ccc"/>
        <path style="fill:none;stroke:#000000;stroke-width:2;stroke-linecap:round;stroke-linejoin:round;stroke-miterlimit:4;stroke-opacity:1;stroke-dasharray:none" d="m 252.05357,328.07647 c 3.77976,-14.6131 11.84524,-15.56548 21.78572,-23.75 8.5119,-6.19048 15.77381,-13.45238 21.78571,-20.71429" id="path5896" inkscape:connector-curvature="0" sodipodi:nodetypes="ccc"/>
        <path style="fill:none;stroke:#000000;stroke-width:2;stroke-linecap:round;stroke-linejoin:round;stroke-miterlimit:4;stroke-opacity:1;stroke-dasharray:none" d="m 292.94643,320.39789 c 2.58929,-2.61904 2.67857,-11.57738 13.39286,-11.07142 10.20833,-0.32738 33.63095,-13.33334 39.73214,-23.48215" id="path5898" inkscape:connector-curvature="0" sodipodi:nodetypes="ccc"/>
        <path sodipodi:nodetypes="cc" inkscape:connector-curvature="0" id="path3960" d="m 323.21428,313.88002 c -0.0893,1.51787 2.14285,2.58929 4.82143,2.50001" style="fill:none;stroke:#351200;stroke-width:1px;stroke-linecap:round;stroke-linejoin:round;stroke-opacity:1"/>
        <path style="fill:none;stroke:#351200;stroke-width:1px;stroke-linecap:round;stroke-linejoin:round;stroke-opacity:1" d="m 319.64285,310.9336 c -1.07143,1.33929 0.44643,7.94643 5.17858,7.85715" id="path3958" inkscape:connector-curvature="0" sodipodi:nodetypes="cc"/>
        <path style="fill:none;stroke:#000000;stroke-width:2;stroke-linecap:round;stroke-linejoin:round;stroke-miterlimit:4;stroke-opacity:1;stroke-dasharray:none" d="m 357.76786,286.29075 c -21.19048,27.38095 -28.45238,27.44048 -42.67857,41.16072 -6.07143,6.16071 -8.03572,7.58929 -9.91072,14.19643 0.8631,10.50595 -4.52381,15.65476 -7.05357,19.46428 -3.125,2.44048 -4.28571,4.97024 -5.08928,7.32143" id="path5900" inkscape:connector-curvature="0" sodipodi:nodetypes="ccccc"/>
        <path style="fill:none;stroke:#351200;stroke-width:1px;stroke-linecap:round;stroke-linejoin:round;stroke-opacity:1" d="M 302.32143,439.50504 C 301.4881,426.29075 306.72619,419.68361 313.75,417.54075" id="path3928" inkscape:connector-curvature="0" sodipodi:nodetypes="cc"/>
        <path style="fill:none;stroke:#351200;stroke-width:1px;stroke-linecap:round;stroke-linejoin:round;stroke-opacity:1" d="m 291.78571,412.8979 c 4.58333,-2.97619 10.41667,-2.7381 13.21429,-1.96429" id="path3932" inkscape:connector-curvature="0" sodipodi:nodetypes="cc"/>
        <path sodipodi:nodetypes="cc" inkscape:connector-curvature="0" id="path3964" d="m 320,442.63004 c -4.85119,-3.92858 -5.05952,-9.46429 -1.69643,-16.69643" style="fill:none;stroke:#351200;stroke-width:1px;stroke-linecap:round;stroke-linejoin:round;stroke-opacity:1"/>
        <path style="fill:none;stroke:#351200;stroke-width:1px;stroke-linecap:round;stroke-linejoin:round;stroke-opacity:1" d="m 296.78571,418.25504 c 3.45238,-4.52381 6.7262,-5.65476 10.35715,-5.53571" id="path3934" inkscape:connector-curvature="0" sodipodi:nodetypes="cc"/>
        <path sodipodi:nodetypes="cc" inkscape:connector-curvature="0" id="path3966" d="m 283.30357,442.63004 c -6.45833,-2.14286 -11.57738,-1.96429 -15.17857,-6.78572" style="fill:none;stroke:#351200;stroke-width:1px;stroke-linecap:round;stroke-linejoin:round;stroke-opacity:1"/>
        <path style="fill:none;stroke:#000000;stroke-width:2;stroke-linecap:round;stroke-linejoin:round;stroke-miterlimit:4;stroke-opacity:1;stroke-dasharray:none" d="m 298.125,360.84432 -0.89286,41.69643 c 8.27381,5.08929 8.6012,12.05357 17.85715,15 8.75,-0.625 16.96428,-2.67857 24.91071,-2.14285 7.5,0.59524 14.01786,3.77976 17.41072,7.41071 1.84524,1.90476 4.67262,1.57738 5.80357,3.57143 8.06548,16.36905 15.05952,12.73809 14.82143,20.98214 -4.88095,-4.22619 -9.67262,0.20834 -26.69643,-7.85714 -13.51191,-0.0893 -18.89881,2.76785 -23.66072,2.41071 -10.80357,-0.11905 -12.76785,4.76191 -25.71428,4.46429 -19.58333,-1.51786 -18.63095,-6.78571 -27.94643,-10.17857" id="path5902" inkscape:connector-curvature="0" sodipodi:nodetypes="ccccccccccc"/>
        <path style="fill:none;stroke:#000000;stroke-width:2;stroke-linecap:round;stroke-linejoin:round;stroke-miterlimit:4;stroke-opacity:1;stroke-dasharray:none" d="m 225.17857,442.36218 c 38.603,-2.21956 43.37271,1.28461 62.14286,1.25" id="path5904" inkscape:connector-curvature="0" sodipodi:nodetypes="cc"/>
        <path style="fill:none;stroke:#000000;stroke-width:2;stroke-linecap:round;stroke-linejoin:round;stroke-miterlimit:4;stroke-opacity:1;stroke-dasharray:none" d="m 311.96429,308.43361 c 7.91667,-8.03571 14.94048,-17.85714 18.92857,-25.17857" id="path5906" inkscape:connector-curvature="0" sodipodi:nodetypes="cc"/>
        <path style="fill:none;stroke:#000000;stroke-width:2;stroke-linecap:round;stroke-linejoin:round;stroke-miterlimit:4;stroke-opacity:1;stroke-dasharray:none" d="m 266.96429,401.6479 c 2.85714,-7.14286 -0.17857,-15.35714 4.28571,-24.64286 5.41667,-5.35714 2.08333,-25.53571 6.07143,-37.5" id="path5908" inkscape:connector-curvature="0" sodipodi:nodetypes="ccc"/>
        <path style="fill:none;stroke:#000000;stroke-width:2;stroke-linecap:round;stroke-linejoin:miter;stroke-miterlimit:4;stroke-opacity:1;stroke-dasharray:none" d="m 324.10714,435.93361 c 1.25,-12.79762 16.25001,-17.38095 25.17858,-18.57143" id="path5910" inkscape:connector-curvature="0" sodipodi:nodetypes="cc"/>
        <path style="fill:none;stroke:#000000;stroke-width:2;stroke-linecap:round;stroke-linejoin:round;stroke-miterlimit:4;stroke-opacity:1;stroke-dasharray:none" d="m 338.75,432.8979 c 6.78572,-9.04762 14.64286,-5.59524 21.96429,-8.39286" id="path5912" inkscape:connector-curvature="0" sodipodi:nodetypes="cc"/>
        <path style="fill:none;stroke:#000000;stroke-width:2;stroke-linecap:round;stroke-linejoin:round;stroke-miterlimit:4;stroke-opacity:1;stroke-dasharray:none" d="m 271.60714,398.96932 c 6.96429,-6.90476 16.78572,-7.20238 25.71429,-6.25" id="path5914" inkscape:connector-curvature="0" sodipodi:nodetypes="cc"/>
        <path style="fill:none;stroke:#000000;stroke-width:2;stroke-linecap:round;stroke-linejoin:round;stroke-miterlimit:4;stroke-opacity:1;stroke-dasharray:none" d="m 191.78571,430.75504 c 12.20238,1.0119 19.58334,-0.47619 23.21429,6.78571" id="path3126" inkscape:connector-curvature="0" sodipodi:nodetypes="cc"/>
        <path style="fill:none;stroke:#000000;stroke-width:2;stroke-linecap:round;stroke-linejoin:round;stroke-miterlimit:4;stroke-opacity:1;stroke-dasharray:none" d="m 173.03571,442.00504 c 9.34524,0.41667 12.44048,2.79762 16.78572,7.67857" id="path3896" inkscape:connector-curvature="0" sodipodi:nodetypes="cc"/>
        <path style="fill:none;stroke:#000000;stroke-width:2;stroke-linecap:round;stroke-linejoin:round;stroke-miterlimit:4;stroke-opacity:1;stroke-dasharray:none" d="m 228.92857,397.18361 c 7.08333,-3.03572 15.41667,-3.75 23.39286,5.35714" id="path3898" inkscape:connector-curvature="0" sodipodi:nodetypes="cc"/>
        <path style="fill:none;stroke:#000000;stroke-width:2;stroke-linecap:round;stroke-linejoin:round;stroke-miterlimit:4;stroke-opacity:1;stroke-dasharray:none" d="m 291.78571,444.68361 c -3.63095,-5.77381 -3.33333,-10.29762 -1.25,-17.85714" id="path3900" inkscape:connector-curvature="0" sodipodi:nodetypes="cc"/>
        <path style="fill:none;stroke:#000000;stroke-width:2;stroke-linecap:round;stroke-linejoin:round;stroke-miterlimit:4;stroke-opacity:1;stroke-dasharray:none" d="m 229.28571,410.93361 c 6.84524,1.72619 10.65476,5.59524 13.57143,9.46429 3.57143,-0.41667 4.82143,1.66667 5.89286,2.5" id="path3902" inkscape:connector-curvature="0" sodipodi:nodetypes="ccc"/>
        <path style="fill:none;stroke:#000000;stroke-width:2;stroke-linecap:round;stroke-linejoin:round;stroke-miterlimit:4;stroke-opacity:1;stroke-dasharray:none" d="m 245.17857,354.50504 c -1.96428,4.16667 -0.71428,9.40476 -3.21428,14.10714" id="path3904" inkscape:connector-curvature="0" sodipodi:nodetypes="cc"/>
        <path style="fill:none;stroke:#000000;stroke-width:2;stroke-linecap:round;stroke-linejoin:round;stroke-miterlimit:4;stroke-opacity:1;stroke-dasharray:none" d="m 243.03571,366.6479 c 19.40476,-10.17857 19.52381,-0.71429 29.28572,-1.07143" id="path3906" inkscape:connector-curvature="0" sodipodi:nodetypes="cc"/>
        <path style="fill:none;stroke:#000000;stroke-width:2;stroke-linecap:round;stroke-linejoin:round;stroke-miterlimit:4;stroke-opacity:1;stroke-dasharray:none" d="m 287.5,338.43361 c 3.86905,5.17857 -0.11905,21.60715 11.60714,15.53572" id="path3908" inkscape:connector-curvature="0" sodipodi:nodetypes="cc"/>
        <path style="fill:none;stroke:#000000;stroke-width:2;stroke-linecap:round;stroke-linejoin:round;stroke-miterlimit:4;stroke-opacity:1;stroke-dasharray:none" d="M 297.32143,351.29075 305,342.71933" id="path3910" inkscape:connector-curvature="0"/>
        <path style="fill:none;stroke:#000000;stroke-width:2;stroke-linecap:round;stroke-linejoin:round;stroke-miterlimit:4;stroke-opacity:1;stroke-dasharray:none" d="m 296.07143,321.29075 c -0.77381,6.07143 -3.86905,28.57143 8.92857,18.75" id="path3912" inkscape:connector-curvature="0" sodipodi:nodetypes="cc"/>
        <path style="fill:none;stroke:#351200;stroke-width:1;stroke-linecap:round;stroke-linejoin:round;stroke-miterlimit:4;stroke-opacity:1;stroke-dasharray:none" d="m 178.03571,418.96933 c 5.71429,0.17857 9.82143,1.60714 12.85715,3.21428 5.59524,1.66667 5.83333,-2.91666 9.28571,-1.96428" id="path3924" inkscape:connector-curvature="0" sodipodi:nodetypes="ccc"/>
        <path style="fill:none;stroke:#351200;stroke-width:1px;stroke-linecap:butt;stroke-linejoin:miter;stroke-opacity:1" d="m 273.03571,431.6479 c 2.5,-8.57143 4.64286,-0.35715 6.42858,-8.03572" id="path3926" inkscape:connector-curvature="0" sodipodi:nodetypes="cc"/>
        <path style="fill:none;stroke:#351200;stroke-width:1px;stroke-linecap:butt;stroke-linejoin:round;stroke-opacity:1" d="m 350.53571,436.11218 c 4.34524,-4.64286 9.04762,-5.35714 15.71429,-3.75" id="path3930" inkscape:connector-curvature="0" sodipodi:nodetypes="cc"/>
        <path style="fill:none;stroke:#351200;stroke-width:1px;stroke-linecap:round;stroke-linejoin:round;stroke-opacity:1" d="m 235.89286,314.50504 c 6.45833,-0.625 10.95238,-3.39286 14.01785,-7.76786" id="path3938" inkscape:connector-curvature="0" sodipodi:nodetypes="cc"/>
        <path style="fill:none;stroke:#351200;stroke-width:1px;stroke-linecap:round;stroke-linejoin:round;stroke-opacity:1" d="m 261.25,319.23718 c 8.86905,-6.25 22.73809,-0.26785 31.42857,-4.01785" id="path3942" inkscape:connector-curvature="0" sodipodi:nodetypes="cc"/>
        <path style="fill:none;stroke:#351200;stroke-width:1px;stroke-linecap:round;stroke-linejoin:round;stroke-opacity:1" d="m 280,314.32647 c 4.55357,-0.35714 8.125,-2.23215 10.44643,-5.08929" id="path3944" inkscape:connector-curvature="0" sodipodi:nodetypes="cc"/>
        <path sodipodi:nodetypes="cc" inkscape:connector-curvature="0" id="path3946" d="m 308.03572,298.16575 c 1.96428,0.89286 3.48214,0.98214 3.92857,3.66071" style="fill:none;stroke:#351200;stroke-width:1px;stroke-linecap:round;stroke-linejoin:round;stroke-opacity:1"/>
        <path style="fill:none;stroke:#351200;stroke-width:1px;stroke-linecap:round;stroke-linejoin:round;stroke-opacity:1" d="m 284.73215,298.70147 c 1.96428,-1.07143 13.83928,-9.73215 25.71428,5.89285" id="path3948" inkscape:connector-curvature="0" sodipodi:nodetypes="cc"/>
        <path sodipodi:nodetypes="cc" inkscape:connector-curvature="0" id="path3956" d="m 304.19643,318.61218 c -1.07143,1.33929 1.60714,12.85714 6.33929,12.76786" style="fill:none;stroke:#351200;stroke-width:1px;stroke-linecap:round;stroke-linejoin:round;stroke-opacity:1"/>
        <path sodipodi:nodetypes="cc" inkscape:connector-curvature="0" id="path3962" d="m 288.92857,409.41576 c 1.90476,0.0595 2.64881,-2.38096 4.91072,-3.12501" style="fill:none;stroke:#351200;stroke-width:1px;stroke-linecap:round;stroke-linejoin:round;stroke-opacity:1"/>
      </g>
      <path sodipodi:nodetypes="cccccccccccccccccccccccccccc" inkscape:connector-curvature="0" id="path4886" d="m 141.92643,274.29218 c -3.19881,2.65165 -5.64001,5.17703 -2.0203,10.98541 -9.89108,7.53406 -3.49344,13.04781 5.55584,14.64722 0.29463,2.90419 2.60956,5.05076 5.42957,5.6821 2.4412,3.70389 7.15524,5.13494 11.11167,1.26269 3.83016,2.77792 8.41794,1.89404 11.11168,-1.51522 5.59793,2.73583 10.56452,1.93612 14.52095,-3.15673 5.51375,1.89404 8.24957,0.12627 12.37436,-5.3033 8.9651,3.32508 13.00571,2.23075 17.80394,-2.90419 2.90419,5.59793 9.09138,8.41794 14.01587,6.56599 3.53553,2.48329 10.6066,3.45136 13.25825,-0.88388 2.65165,0.58926 8.5863,2.56747 10.98541,0.25254 1.72568,1.76777 6.35554,1.13642 7.82868,-1.51523 6.86062,0.21045 12.33228,-2.10449 15.27856,-8.83884 1.97822,-7.32361 17.59349,-19.06663 5.93465,-21.97082 2.23075,-6.39763 0.54716,-14.56303 -11.49049,-15.78363 -0.67343,-5.42957 -4.12479,-7.44987 -9.21764,-6.06091 4.67196,3.49344 7.19734,6.86062 2.65165,13.13198 3.40927,7.70241 1.26269,14.14214 -7.95495,15.15229 -2.69374,10.56451 -15.1102,15.82572 -20.96067,6.31345 -0.88388,1.55732 -2.0203,3.74598 -5.3033,2.77792 -6.31345,1.05224 -10.73287,6.90271 -18.94036,3.15673 -1.13642,2.60956 -4.67195,2.56747 -7.57614,0.63134 -1.93613,3.91434 -6.1451,5.93465 -13.76333,0.37881 -3.32509,5.47166 -8.79675,10.43824 -18.30902,5.05076 -3.19882,2.52538 -15.23647,5.93465 -20.20305,-3.40926 -1.30478,0.12627 -2.98837,0.37881 -3.91434,-3.03046 -4.37733,1.17851 -10.52242,-2.31494 -8.20749,-11.61676 z" style="fill:#729048;fill-opacity:1;stroke:none"/>
      <path sodipodi:nodetypes="ccccc" inkscape:connector-curvature="0" id="path4868" d="m 66.922606,282.24714 c -5.050763,13.0478 6.060915,14.22631 15.531095,13.38452 -3.367175,5.47166 0.968063,6.5239 3.914342,6.18718 -5.51375,18.43528 22.307537,18.05648 30.052037,7.95495 5.89256,8.67048 15.19438,3.19882 21.46574,-0.12627" style="fill:none;stroke:#000000;stroke-width:2;stroke-linecap:round;stroke-linejoin:round;stroke-miterlimit:4;stroke-opacity:1;stroke-dasharray:none"/>
      <path sodipodi:nodetypes="cccccc" inkscape:connector-curvature="0" id="path4870" d="m 150.38646,305.48064 c -2.79896,-0.23149 -5.53479,-1.41 -4.23001,-5.24016 -7.91286,1.6415 -19.86634,-8.52317 -5.93465,-14.96289 -5.3033,-5.13494 -3.03046,-8.18644 2.08344,-11.23794 -5.9136,-7.15525 -5.95569,-14.87871 8.9651,-15.59423 -0.23149,-11.8272 8.56526,-15.69945 16.92006,-10.85914" style="fill:none;stroke:#000000;stroke-width:2;stroke-linecap:round;stroke-linejoin:round;stroke-miterlimit:4;stroke-opacity:1;stroke-dasharray:none"/>
      <path sodipodi:nodetypes="ccccc" inkscape:connector-curvature="0" id="path4872" d="m 166.86457,254.34167 c -1.59941,-5.99778 2.04135,-6.81853 4.29315,-7.38674 -5.02972,-6.06091 -2.92523,-9.53331 4.04061,-13.25825 -6.83957,-6.03987 0.0211,-9.61749 2.96733,-9.59645 -1.47314,-18.54051 14.10004,-19.46648 25.88515,-14.89975" style="fill:none;stroke:#000000;stroke-width:2;stroke-linecap:round;stroke-linejoin:round;stroke-miterlimit:4;stroke-opacity:1;stroke-dasharray:none"/>
      <path sodipodi:nodetypes="ccc" inkscape:connector-curvature="0" id="path4874" d="m 199.50513,212.67288 c 7.07107,-5.28226 15.08915,-4.5036 15.53109,1.95717 7.99704,-2.96732 15.04706,1.01015 14.89975,7.38674" style="fill:none;stroke:#000000;stroke-width:2;stroke-linecap:round;stroke-linejoin:round;stroke-miterlimit:4;stroke-opacity:1;stroke-dasharray:none"/>
      <path sodipodi:nodetypes="ccccccccccccccc" inkscape:connector-curvature="0" id="path4926" d="m 266.42773,243.98761 c 0.50508,-3.99852 1.01015,-7.99704 1.51523,-11.99556 3.70389,-1.2206 4.25106,-2.94628 1.26269,-5.17703 11.49049,0.58925 14.39468,-7.02898 9.84899,-12.62691 10.1857,-1.6415 13.0478,-13.25826 13.13198,-17.04633 7.70241,-4.33524 4.16688,-13.08989 4.16688,-20.58185 8.83884,5.17703 5.68211,21.33947 3.40927,21.59201 1.55732,3.07255 1.34687,5.51375 0.12627,7.70241 0.71552,0.50508 1.43105,1.01015 2.14657,1.51523 -0.7997,1.59941 -1.09433,3.45135 -0.12627,4.79822 -11.0275,2.48329 -15.1102,12.41646 -13.00571,18.05648 0.58926,2.06239 1.93613,3.11463 2.90419,3.53553 -2.48329,0.0421 -3.32509,2.8621 -3.66181,4.29315 -9.8069,0.0421 -10.90123,3.74598 -12.75317,8.08122 -2.10449,-4.37733 -5.7242,-3.45135 -8.96511,-2.14657 z" style="fill:#729048;fill-opacity:1;stroke:none"/>
      <path sodipodi:nodetypes="cccccc" inkscape:connector-curvature="0" id="path4876" d="m 227.9788,216.33468 c 12.03765,-6.60808 27.73711,-5.00867 26.83218,10.48033 10.75392,-0.39985 17.53035,9.23869 9.34391,18.68783 6.58704,-1.85195 8.88093,1.47314 9.15451,6.56599 8.9651,-1.45209 13.63706,4.92449 11.74302,15.34169 10.81705,1.8309 1.74672,14.64721 -8.08122,15.15229" style="fill:none;stroke:#000000;stroke-width:2;stroke-linecap:round;stroke-linejoin:round;stroke-miterlimit:4;stroke-opacity:1;stroke-dasharray:none"/>
      <path sodipodi:nodetypes="cccccccc" inkscape:connector-curvature="0" id="path4878" d="m 162.12948,306.8696 c 2.69374,2.98837 9.04928,1.93613 10.73287,-1.64149 5.76629,3.91434 11.15377,1.76776 15.02602,-3.40927 6.31345,3.19882 10.22779,-1.17851 12.12183,-5.17703 5.80838,3.53553 13.76333,3.15673 18.18275,-2.65165 2.8621,6.69226 9.13346,8.9651 13.51079,6.06091 6.31345,4.67196 11.11168,4.29315 13.25825,-0.75761 4.8824,1.38896 11.0275,-0.63135 13.8896,-5.68211" style="fill:none;stroke:#000000;stroke-width:2;stroke-linecap:round;stroke-linejoin:round;stroke-miterlimit:4;stroke-opacity:1;stroke-dasharray:none"/>
      <path sodipodi:nodetypes="cccc" inkscape:connector-curvature="0" id="path4880" d="m 250.13902,300.17734 c 2.23075,1.17851 4.71405,1.59941 5.93465,0.12627 3.32508,1.68359 6.77644,0.58926 7.70241,-2.14657 6.18718,1.51523 13.8896,-2.77792 15.15229,-8.33376" style="fill:none;stroke:#000000;stroke-width:2;stroke-linecap:round;stroke-linejoin:round;stroke-miterlimit:4;stroke-opacity:1;stroke-dasharray:none"/>
      <path sodipodi:nodetypes="ccccc" inkscape:connector-curvature="0" id="path4882" d="m 153.92199,289.19194 c 4.54569,6.60808 15.5311,6.5239 20.45559,3.15672 6.18719,5.34539 16.28871,2.10449 18.18275,-4.79822 4.96658,5.47166 11.44839,4.25106 14.14213,-0.63135 2.8621,2.69374 5.85047,1.97821 7.07107,-0.25254" style="fill:none;stroke:#000000;stroke-width:2;stroke-linecap:round;stroke-linejoin:round;stroke-miterlimit:4;stroke-opacity:1;stroke-dasharray:none"/>
      <path sodipodi:nodetypes="ccccc" inkscape:connector-curvature="0" id="path4884" d="m 232.58762,283.13102 c 2.56747,1.05224 4.8824,-0.54717 5.42957,-2.52538 5.59793,10.94332 21.29739,3.83016 20.96067,-6.56599 10.81705,0.63134 11.78511,-7.82869 7.82868,-15.5311 5.09285,-6.43972 3.36718,-9.21764 -2.52538,-12.50064" style="fill:none;stroke:#000000;stroke-width:2;stroke-linecap:round;stroke-linejoin:round;stroke-miterlimit:4;stroke-opacity:1;stroke-dasharray:none"/>
      <path sodipodi:nodetypes="cc" inkscape:connector-curvature="0" id="path4892" d="m 275.51911,304.34422 c 2.16762,3.15673 10.33302,-0.44194 10.85914,-5.3033" style="fill:none;stroke:#000000;stroke-width:2;stroke-linecap:round;stroke-linejoin:round;stroke-miterlimit:4;stroke-opacity:1;stroke-dasharray:none"/>
      <path sodipodi:nodetypes="cccc" inkscape:connector-curvature="0" id="path4894" d="m 292.06035,283.50983 c 3.0515,10.85914 26.36919,9.65958 38.13326,4.16688 3.36718,3.36717 8.81779,3.76702 12.94258,1.19955 5.38748,3.72494 12.22706,0.56821 14.26841,-3.21986" style="fill:none;stroke:#000000;stroke-width:2;stroke-linecap:round;stroke-linejoin:round;stroke-miterlimit:4;stroke-opacity:1;stroke-dasharray:none"/>
      <path sodipodi:nodetypes="cccc" inkscape:connector-curvature="0" id="path4896" d="m 350.83861,281.86833 c 2.35702,3.80912 9.00719,4.20897 10.29092,0.44194 -0.14731,3.68285 2.6727,6.60808 5.80838,4.79822 -0.63135,4.71405 3.72494,8.22854 9.47018,4.29315" style="fill:none;stroke:#000000;stroke-width:2;stroke-linecap:round;stroke-linejoin:round;stroke-miterlimit:4;stroke-opacity:1;stroke-dasharray:none"/>
      <path sodipodi:nodetypes="ccccc" inkscape:connector-curvature="0" id="path4898" d="m 381.08005,295.50539 c 5.21912,4.5036 13.21616,4.58777 17.5514,1.01015 6.90271,0.88388 15.69945,0.63135 15.78363,-6.81853 6.18718,-0.29463 9.21764,-2.60956 9.09137,-8.83883 3.61972,-0.75762 4.46151,-3.53554 3.66181,-6.43973" style="fill:none;stroke:#000000;stroke-width:2;stroke-linecap:round;stroke-linejoin:round;stroke-miterlimit:4;stroke-opacity:1;stroke-dasharray:none"/>
      <path sodipodi:nodetypes="cc" inkscape:connector-curvature="0" id="path4900" d="m 407.09148,306.23826 c 9.63854,2.23075 16.49915,1.80986 23.61231,-6.56599" style="fill:none;stroke:#000000;stroke-width:2;stroke-linecap:round;stroke-linejoin:round;stroke-miterlimit:4;stroke-opacity:1;stroke-dasharray:none"/>
      <path sodipodi:nodetypes="ccc" inkscape:connector-curvature="0" id="path4902" d="m 431.33514,312.29917 c 5.00867,-1.6415 7.11316,-3.91434 5.55584,-7.57614 5.26121,-1.30478 6.86062,-4.8824 6.31345,-9.59645" style="fill:none;stroke:#000000;stroke-width:2;stroke-linecap:round;stroke-linejoin:round;stroke-miterlimit:4;stroke-opacity:1;stroke-dasharray:none"/>
      <path sodipodi:nodetypes="ccc" inkscape:connector-curvature="0" id="path4904" d="m 428.43095,261.03393 c 8.71257,1.97822 9.84899,9.38601 8.33376,17.29887 3.78807,-0.37881 7.82868,5.17703 7.95495,9.47018" style="fill:none;stroke:#000000;stroke-width:2;stroke-linecap:round;stroke-linejoin:round;stroke-miterlimit:4;stroke-opacity:1;stroke-dasharray:none"/>
      <path sodipodi:nodetypes="cccccc" inkscape:connector-curvature="0" id="path4906" d="m 439.92143,303.71288 c 5.64002,3.19882 10.90123,1.09433 11.23795,-4.41942 11.57467,1.80986 16.20453,-3.07255 13.8896,-13.51079 7.44987,-7.11316 5.3033,-11.95347 -5.68211,-17.5514 1.59941,-1.05224 3.19882,-1.72568 1.76777,-3.91434 6.77644,-0.96806 9.63854,-5.97674 8.9651,-11.23795" style="fill:none;stroke:#000000;stroke-width:2;stroke-linecap:round;stroke-linejoin:round;stroke-miterlimit:4;stroke-opacity:1;stroke-dasharray:none"/>
      <path sodipodi:nodetypes="ccccccccc" inkscape:connector-curvature="0" id="path4910" d="m 300.64665,271.7668 c 2.52538,6.98689 10.98541,6.1451 17.04633,3.53554 4.20897,9.51227 13.34243,5.76629 19.44543,2.39911 6.18719,1.09433 9.47018,-0.0842 10.2278,-6.18718 4.75613,4.58777 12.29019,3.2409 16.16244,0.12626 3.19882,8.1654 16.87796,5.59793 19.82424,-1.64149 15.9099,1.34687 22.72843,-13.34243 11.74302,-19.06663 9.13346,-6.1451 9.30182,-12.669 6.9448,-19.95052 l 0.12627,0.25254" style="fill:none;stroke:#000000;stroke-width:2;stroke-linecap:round;stroke-linejoin:round;stroke-miterlimit:4;stroke-opacity:1;stroke-dasharray:none"/>
      <path sodipodi:nodetypes="cccccccccc" inkscape:connector-curvature="0" id="path4912" d="m 419.46584,270.37784 c 6.1451,-3.07255 7.3657,-8.92301 3.66181,-12.6269 5.09285,-4.04061 2.60956,-9.97526 -0.63135,-12.12183 7.78659,-7.87077 3.7039,-13.4687 -2.0203,-17.5514 1.59941,-10.35407 -2.73583,-14.14214 -11.11168,-13.25826 -0.92597,-0.58925 -1.85195,-1.17851 -2.77792,-1.76776 1.01015,-5.80838 -2.0203,-11.36422 -7.95495,-11.74303 2.39911,-13.55288 -3.91434,-16.12035 -17.04633,-16.79378 -0.0421,-19.65589 -26.22188,-26.17979 -36.49176,-10.10153 -11.40631,0.58926 -13.08989,7.99704 -13.38452,13.51079" style="fill:none;stroke:#000000;stroke-width:2;stroke-linecap:round;stroke-linejoin:round;stroke-miterlimit:4;stroke-opacity:1;stroke-dasharray:none"/>
      <path sodipodi:nodetypes="ccccc" inkscape:connector-curvature="0" id="path4914" d="m 289.15617,229.59293 c 0.0842,-10.43824 6.73435,-16.20453 13.88959,-16.54124 -2.31493,-8.20749 4.46151,-10.10153 10.48034,-10.2278 -4.71405,-11.19586 18.60364,-23.2756 25.63262,-7.07107 2.35702,-5.47166 8.50212,-4.5036 10.85914,-1.26269" style="fill:none;stroke:#000000;stroke-width:2;stroke-linecap:round;stroke-linejoin:round;stroke-miterlimit:4;stroke-opacity:1;stroke-dasharray:none"/>
      <path sodipodi:nodetypes="ccc" inkscape:connector-curvature="0" id="path4918" d="m 151.01781,182.11577 c 2.31493,3.95643 4.62987,5.13494 8.08122,4.67195 -3.49345,8.03913 4.25105,8.62838 13.76332,7.82868" style="fill:none;stroke:#000000;stroke-width:2;stroke-linecap:round;stroke-linejoin:round;stroke-miterlimit:4;stroke-opacity:1;stroke-dasharray:none"/>
      <path sodipodi:nodetypes="ccccc" inkscape:connector-curvature="0" id="path4920" d="m 175.514,175.0447 c -1.34687,5.89256 1.47314,7.7445 7.70242,9.72272 -4.46151,3.03046 -2.73583,8.9651 4.41942,10.6066 0.75761,2.27284 3.91434,5.05076 9.47018,3.40926 -0.75762,1.85195 1.01015,4.71405 3.78807,4.41942" style="fill:none;stroke:#000000;stroke-width:2;stroke-linecap:round;stroke-linejoin:round;stroke-miterlimit:4;stroke-opacity:1;stroke-dasharray:none"/>
      <path sodipodi:nodetypes="ccccccccc" inkscape:connector-curvature="0" id="path4922" d="m 172.98862,167.97363 c -0.21045,8.88092 -0.54716,14.73139 8.46003,17.17259 -3.91434,5.38748 -0.12627,8.75466 5.3033,10.85914 0.67343,3.83016 5.00867,4.5036 9.21764,3.91434 0.79971,1.30478 1.34688,2.35702 2.39912,3.91434 -0.8418,0.0842 -2.31494,-0.58925 -3.283,-2.39911 -3.19882,0.25254 -8.1654,1.51523 -9.97526,-3.40926 -4.79822,-0.92597 -10.48033,-1.97821 -7.57614,-11.86929 -7.70241,-2.52538 -9.72272,-10.2278 -4.54569,-18.18275 z" style="fill:#7b8d3e;fill-opacity:1;stroke:none"/>
      <path sodipodi:nodetypes="cccc" inkscape:connector-curvature="0" id="path4924" d="m 268.32177,231.3607 c 1.89403,-0.92597 2.14657,-3.24091 0.75761,-4.29315 12.12183,-2.06239 13.51079,-9.17555 7.57615,-13.38452 10.98541,-2.35702 14.64721,-10.39615 14.39467,-19.5717" style="fill:none;stroke:#000000;stroke-width:2;stroke-linecap:round;stroke-linejoin:round;stroke-miterlimit:4;stroke-opacity:1;stroke-dasharray:none"/>
      <path sodipodi:nodetypes="cccc" inkscape:connector-curvature="0" id="path4928" d="m 292.81797,282.37341 c 12.41646,1.43105 24.83291,2.86209 37.24937,4.29314 -5.55584,3.11464 -11.74302,5.09285 -21.2132,4.04061 -4.96658,1.13642 -10.69078,-5.55583 -16.03617,-8.33375 z" style="fill:#729048;fill-opacity:1;stroke:none"/>
    </g>
  </g>
</svg>